<?xml version="1.0" encoding="utf-8"?>
<!-- Generator: Adobe Illustrator 15.0.0, SVG Export Plug-In . SVG Version: 6.00 Build 0)  -->
<!DOCTYPE svg PUBLIC "-//W3C//DTD SVG 1.1//EN" "http://www.w3.org/Graphics/SVG/1.1/DTD/svg11.dtd">
<svg version="1.1" xmlns="http://www.w3.org/2000/svg" xmlns:xlink="http://www.w3.org/1999/xlink" x="0px" y="0px" width="320px"
	 height="120px" viewBox="0 -12.5 320 120" enable-background="new 0 -12.5 320 120" xml:space="preserve">
<g id="Calque_2" display="none">
	<polygon display="inline" fill="#1A578B" points="61.648,20.045 74.076,20.045 53.458,69.961 41.037,69.961 	"/>
	<rect x="61.919" y="20.045" display="inline" fill="#007AC8" width="12.157" height="54.844"/>
	<rect x="20.364" y="20.045" display="inline" fill="#1A578B" width="12.158" height="54.844"/>
	<g display="inline">
		<polygon fill="#007AC8" points="33.063,20.045 20.364,20.045 41.037,69.961 53.458,69.961 		"/>
	</g>
</g>
<g id="Layer_1">
	<g>
		<path fill="#65382D" d="M224.191,17.227c1.078,0,1.944,0.27,2.601,0.808c0.656,0.539,1.106,1.24,1.352,2.104l-1.359,0.272
			c-0.214-0.629-0.547-1.128-1-1.496c-0.454-0.368-0.984-0.552-1.593-0.552c-0.842,0-1.541,0.352-2.096,1.056
			c-0.555,0.704-0.832,1.683-0.832,2.936s0.248,2.259,0.744,3.016c0.496,0.758,1.224,1.136,2.184,1.136
			c0.801,0,1.433-0.21,1.896-0.632s0.696-0.979,0.696-1.672h1.359c0,1.056-0.359,1.894-1.08,2.512
			c-0.72,0.619-1.706,0.928-2.96,0.928c-1.253,0-2.267-0.48-3.04-1.44s-1.159-2.245-1.159-3.856c0-1.61,0.399-2.866,1.199-3.768
			C221.904,17.678,222.934,17.227,224.191,17.227z"/>
		<path fill="#65382D" d="M231.216,18.011c-0.256,0-0.456-0.072-0.601-0.216c-0.144-0.144-0.216-0.336-0.216-0.576
			c0-0.24,0.072-0.432,0.216-0.576c0.145-0.144,0.345-0.216,0.601-0.216s0.461,0.072,0.615,0.216
			c0.155,0.144,0.232,0.336,0.232,0.576c0,0.24-0.077,0.432-0.232,0.576C231.677,17.939,231.472,18.011,231.216,18.011z
			 M230.592,19.803h1.264v7.664h-1.264V19.803z"/>
		<path fill="#65382D" d="M240.496,25.947c-0.523,1.109-1.371,1.664-2.544,1.664c-0.864,0-1.561-0.24-2.089-0.72
			c-0.527-0.48-0.792-1.221-0.792-2.224v-4.864h1.265v4.768c0,1.291,0.597,1.936,1.792,1.936c0.693,0,1.256-0.267,1.688-0.8
			c0.433-0.534,0.659-1.216,0.681-2.048v-3.856h1.264v7.664h-1.264V25.947z"/>
		<path fill="#65382D" d="M250,20.955v-4.384h1.248v10.896h-1.024l-0.159-1.28c-0.246,0.48-0.571,0.843-0.977,1.088
			s-0.848,0.368-1.328,0.368c-0.971,0-1.784-0.373-2.439-1.12c-0.656-0.747-0.984-1.72-0.984-2.92c0-1.2,0.322-2.163,0.968-2.888
			c0.646-0.725,1.462-1.088,2.448-1.088S249.488,20.069,250,20.955z M247.824,20.747c-0.619,0-1.139,0.262-1.561,0.784
			c-0.421,0.523-0.632,1.222-0.632,2.096s0.214,1.576,0.641,2.104c0.426,0.528,0.938,0.792,1.535,0.792c0.598,0,1.106-0.2,1.528-0.6
			c0.421-0.4,0.643-0.936,0.664-1.608v-1.248c0-0.714-0.208-1.28-0.624-1.696S248.442,20.747,247.824,20.747z"/>
		<path fill="#65382D" d="M259.231,22.507c0-0.693-0.144-1.189-0.432-1.488c-0.288-0.298-0.707-0.448-1.256-0.448
			c-0.55,0-0.992,0.109-1.328,0.328s-0.504,0.562-0.504,1.032h-1.392c0-1.173,0.629-1.898,1.888-2.176
			c0.384-0.085,0.8-0.128,1.248-0.128c0.949,0,1.69,0.24,2.224,0.72s0.8,1.211,0.8,2.192v4.928h-1.088l-0.128-1.28
			c-0.47,0.971-1.317,1.456-2.544,1.456c-0.832,0-1.493-0.229-1.983-0.688c-0.491-0.458-0.736-1.029-0.736-1.712
			c0-0.683,0.277-1.216,0.832-1.6c0.544-0.384,1.227-0.576,2.048-0.576s1.605,0.139,2.352,0.416V22.507z M259.231,24.283
			c-0.757-0.213-1.418-0.32-1.983-0.32s-1.024,0.102-1.376,0.304c-0.353,0.203-0.528,0.523-0.528,0.96c0,0.96,0.544,1.44,1.632,1.44
			c0.619,0,1.149-0.222,1.593-0.664C259.011,25.56,259.231,24.987,259.231,24.283z"/>
		<path fill="#65382D" d="M268.464,20.955v-4.384h1.248v10.896h-1.024l-0.159-1.28c-0.246,0.48-0.571,0.843-0.977,1.088
			s-0.848,0.368-1.328,0.368c-0.971,0-1.784-0.373-2.439-1.12c-0.656-0.747-0.984-1.72-0.984-2.92c0-1.2,0.322-2.163,0.968-2.888
			c0.646-0.725,1.462-1.088,2.448-1.088S267.952,20.069,268.464,20.955z M266.288,20.747c-0.619,0-1.139,0.262-1.561,0.784
			c-0.421,0.523-0.632,1.222-0.632,2.096s0.214,1.576,0.641,2.104c0.426,0.528,0.938,0.792,1.535,0.792c0.598,0,1.106-0.2,1.528-0.6
			c0.421-0.4,0.643-0.936,0.664-1.608v-1.248c0-0.714-0.208-1.28-0.624-1.696S266.906,20.747,266.288,20.747z"/>
		<path fill="#65382D" d="M275.6,26.619c1.056,0,1.658-0.464,1.809-1.392h1.296c-0.118,0.768-0.456,1.363-1.017,1.784
			c-0.56,0.421-1.256,0.632-2.088,0.632c-1.023,0-1.855-0.365-2.496-1.096c-0.64-0.73-0.96-1.704-0.96-2.92
			c0-1.216,0.322-2.187,0.968-2.912c0.646-0.725,1.505-1.088,2.576-1.088c1.072,0,1.872,0.416,2.4,1.248s0.712,1.845,0.552,3.04
			h-5.231c0,0.789,0.191,1.438,0.575,1.944C274.368,26.366,274.906,26.619,275.6,26.619z M276.527,20.827
			c-0.245-0.128-0.544-0.192-0.896-0.192c-0.65,0-1.166,0.222-1.544,0.664c-0.379,0.443-0.601,0.995-0.664,1.656h4.08
			C277.504,21.888,277.179,21.179,276.527,20.827z"/>
		<path fill="#65382D" d="M281.608,20.187c0.538-0.374,1.266-0.56,2.184-0.56c0.917,0,1.635,0.192,2.152,0.576
			c0.517,0.384,0.786,0.87,0.808,1.456h-1.232c-0.096-0.693-0.683-1.04-1.76-1.04c-0.522,0-0.925,0.118-1.208,0.352
			c-0.282,0.235-0.424,0.488-0.424,0.76s0.106,0.501,0.32,0.688c0.213,0.187,0.555,0.349,1.023,0.488l1.536,0.512
			c0.65,0.203,1.149,0.461,1.496,0.776c0.347,0.315,0.521,0.747,0.521,1.296c0,0.55-0.283,1.045-0.849,1.488
			c-0.565,0.442-1.354,0.664-2.368,0.664c-1.013,0-1.803-0.226-2.367-0.68c-0.566-0.453-0.864-1.037-0.896-1.752h1.216
			c0.021,0.48,0.216,0.84,0.584,1.08c0.368,0.24,0.829,0.36,1.384,0.36s1.014-0.117,1.376-0.352c0.363-0.234,0.545-0.515,0.545-0.84
			s-0.107-0.573-0.32-0.744c-0.214-0.17-0.561-0.32-1.04-0.448l-1.488-0.496c-1.333-0.395-2-1.088-2-2.08
			C280.8,21.062,281.069,20.56,281.608,20.187z"/>
		<path fill="#65382D" d="M222.96,37.403h1.536l3.376,10.064h-1.312l-0.863-2.56h-4l-0.864,2.56h-1.328L222.96,37.403z
			 M222.032,43.915h3.344l-1.664-4.96L222.032,43.915z"/>
		<path fill="#65382D" d="M231.12,41.291c0.501-1.109,1.36-1.664,2.576-1.664c0.906,0,1.613,0.299,2.12,0.896
			c0.506,0.597,0.76,1.414,0.76,2.448v4.496h-1.248v-4.496c0-0.736-0.174-1.291-0.521-1.664c-0.347-0.373-0.84-0.56-1.479-0.56
			s-1.157,0.262-1.552,0.784c-0.396,0.523-0.604,1.248-0.624,2.176v3.76h-1.265v-7.648h1.089L231.12,41.291z"/>
		<path fill="#65382D" d="M244.561,40.955v-4.384h1.248v10.896h-1.024l-0.159-1.28c-0.246,0.48-0.571,0.843-0.977,1.088
			s-0.848,0.368-1.328,0.368c-0.971,0-1.784-0.373-2.439-1.12c-0.656-0.747-0.984-1.72-0.984-2.92c0-1.2,0.322-2.163,0.968-2.888
			c0.646-0.725,1.462-1.088,2.448-1.088S244.049,40.069,244.561,40.955z M242.385,40.747c-0.619,0-1.139,0.262-1.561,0.784
			c-0.421,0.523-0.632,1.222-0.632,2.096s0.214,1.576,0.641,2.104c0.426,0.528,0.938,0.792,1.535,0.792c0.598,0,1.106-0.2,1.528-0.6
			c0.421-0.4,0.643-0.936,0.664-1.608v-1.248c0-0.714-0.208-1.28-0.624-1.696S243.003,40.747,242.385,40.747z"/>
		<path fill="#65382D" d="M249.761,38.011c-0.256,0-0.456-0.072-0.601-0.216c-0.144-0.144-0.216-0.336-0.216-0.576
			c0-0.24,0.072-0.432,0.216-0.576c0.145-0.144,0.345-0.216,0.601-0.216s0.461,0.072,0.615,0.216
			c0.155,0.144,0.232,0.336,0.232,0.576c0,0.24-0.077,0.432-0.232,0.576C250.222,37.939,250.017,38.011,249.761,38.011z
			 M249.137,39.803h1.264v7.664h-1.264V39.803z"/>
		<path fill="#65382D" d="M255.057,41.291c0.501-1.109,1.36-1.664,2.576-1.664c0.906,0,1.613,0.299,2.12,0.896
			c0.506,0.597,0.76,1.414,0.76,2.448v4.496h-1.248v-4.496c0-0.736-0.174-1.291-0.521-1.664c-0.347-0.373-0.84-0.56-1.479-0.56
			s-1.157,0.262-1.552,0.784c-0.396,0.523-0.604,1.248-0.624,2.176v3.76h-1.265v-7.648h1.089L255.057,41.291z"/>
		<path fill="#65382D" d="M268.224,42.507c0-0.693-0.144-1.189-0.432-1.488c-0.288-0.298-0.707-0.448-1.256-0.448
			c-0.55,0-0.992,0.109-1.328,0.328s-0.504,0.562-0.504,1.032h-1.392c0-1.173,0.629-1.898,1.888-2.176
			c0.384-0.085,0.8-0.128,1.248-0.128c0.949,0,1.69,0.24,2.224,0.72s0.8,1.211,0.8,2.192v4.928h-1.088l-0.128-1.28
			c-0.47,0.971-1.317,1.456-2.544,1.456c-0.832,0-1.493-0.229-1.983-0.688c-0.491-0.458-0.736-1.029-0.736-1.712
			c0-0.683,0.277-1.216,0.832-1.6c0.544-0.384,1.227-0.576,2.048-0.576s1.605,0.139,2.352,0.416V42.507z M268.224,44.283
			c-0.757-0.213-1.418-0.32-1.983-0.32s-1.024,0.102-1.376,0.304c-0.353,0.203-0.528,0.523-0.528,0.96c0,0.96,0.544,1.44,1.632,1.44
			c0.619,0,1.149-0.222,1.593-0.664C268.003,45.56,268.224,44.987,268.224,44.283z"/>
		<path fill="#65382D" d="M272.856,40.187c0.538-0.374,1.266-0.56,2.184-0.56c0.917,0,1.635,0.192,2.152,0.576
			c0.517,0.384,0.786,0.87,0.808,1.456h-1.232c-0.096-0.693-0.683-1.04-1.76-1.04c-0.522,0-0.925,0.118-1.208,0.352
			c-0.282,0.235-0.424,0.488-0.424,0.76s0.106,0.501,0.32,0.688c0.213,0.187,0.555,0.349,1.023,0.488l1.536,0.512
			c0.65,0.203,1.149,0.461,1.496,0.776c0.347,0.315,0.521,0.747,0.521,1.296c0,0.55-0.283,1.045-0.849,1.488
			c-0.565,0.442-1.354,0.664-2.368,0.664c-1.013,0-1.803-0.226-2.367-0.68c-0.566-0.453-0.864-1.037-0.896-1.752h1.216
			c0.021,0.48,0.216,0.84,0.584,1.08c0.368,0.24,0.829,0.36,1.384,0.36s1.014-0.117,1.376-0.352c0.363-0.234,0.545-0.515,0.545-0.84
			s-0.107-0.573-0.32-0.744c-0.214-0.17-0.561-0.32-1.04-0.448l-1.488-0.496c-1.333-0.395-2-1.088-2-2.08
			C272.048,41.062,272.317,40.56,272.856,40.187z"/>
		<path fill="#65382D" d="M283.136,49.69c0.522,0.405,1.072,0.608,1.647,0.608c0.427,0,0.795-0.214,1.104-0.64
			c0.224-0.31,0.427-0.779,0.608-1.408l0.224-0.784l-3.136-7.648h1.407l2.32,6.096l1.809-6.096h1.279l-2.863,9.167
			c-0.246,0.779-0.568,1.377-0.969,1.792c-0.399,0.416-0.906,0.624-1.52,0.624s-1.251-0.187-1.912-0.56V49.69z"/>
		<path fill="#65382D" d="M224.191,57.227c1.078,0,1.944,0.27,2.601,0.809c0.656,0.538,1.106,1.239,1.352,2.104l-1.359,0.272
			c-0.214-0.63-0.547-1.128-1-1.496c-0.454-0.368-0.984-0.552-1.593-0.552c-0.842,0-1.541,0.352-2.096,1.056
			s-0.832,1.683-0.832,2.936c0,1.254,0.248,2.259,0.744,3.017c0.496,0.757,1.224,1.136,2.184,1.136c0.801,0,1.433-0.211,1.896-0.632
			c0.464-0.422,0.696-0.979,0.696-1.672h1.359c0,1.056-0.359,1.894-1.08,2.512c-0.72,0.619-1.706,0.928-2.96,0.928
			c-1.253,0-2.267-0.479-3.04-1.439s-1.159-2.245-1.159-3.856c0-1.61,0.399-2.866,1.199-3.768
			C221.904,57.678,222.934,57.227,224.191,57.227z"/>
		<path fill="#65382D" d="M235.247,62.507c0-0.693-0.144-1.189-0.432-1.488c-0.288-0.298-0.707-0.448-1.256-0.448
			c-0.55,0-0.992,0.11-1.328,0.328c-0.336,0.219-0.504,0.563-0.504,1.032h-1.392c0-1.173,0.629-1.898,1.888-2.176
			c0.384-0.085,0.8-0.128,1.248-0.128c0.949,0,1.69,0.24,2.224,0.72c0.533,0.48,0.8,1.211,0.8,2.192v4.928h-1.088l-0.128-1.28
			c-0.47,0.971-1.317,1.456-2.544,1.456c-0.832,0-1.493-0.229-1.983-0.688c-0.491-0.459-0.736-1.029-0.736-1.712
			s0.277-1.217,0.832-1.601c0.544-0.384,1.227-0.576,2.048-0.576s1.605,0.139,2.352,0.416V62.507z M235.247,64.283
			c-0.757-0.214-1.418-0.32-1.983-0.32s-1.024,0.102-1.376,0.304c-0.353,0.203-0.528,0.522-0.528,0.96c0,0.96,0.544,1.44,1.632,1.44
			c0.619,0,1.149-0.222,1.593-0.664C235.026,65.561,235.247,64.986,235.247,64.283z"/>
		<path fill="#65382D" d="M240.688,61.291c0.501-1.109,1.36-1.664,2.576-1.664c0.661,0,1.216,0.162,1.664,0.488
			c0.447,0.325,0.773,0.775,0.976,1.352c0.48-1.227,1.371-1.84,2.672-1.84c0.918,0,1.627,0.299,2.128,0.896
			c0.502,0.598,0.752,1.414,0.752,2.448v4.496h-1.248v-4.496c0-0.736-0.173-1.29-0.52-1.664c-0.347-0.373-0.846-0.56-1.496-0.56
			s-1.154,0.267-1.512,0.8s-0.536,1.27-0.536,2.208v3.712h-1.248v-4.496c0-0.736-0.174-1.29-0.521-1.664
			c-0.347-0.373-0.84-0.56-1.479-0.56s-1.157,0.261-1.552,0.784c-0.396,0.522-0.604,1.247-0.624,2.176v3.76h-1.265v-7.648h1.089
			L240.688,61.291z"/>
		<path fill="#65382D" d="M255.695,60.955c0.512-0.886,1.259-1.328,2.24-1.328s1.797,0.365,2.448,1.096
			c0.65,0.73,0.976,1.696,0.976,2.896c0,1.199-0.331,2.17-0.992,2.912c-0.661,0.741-1.467,1.111-2.416,1.111
			c-0.512,0-0.974-0.128-1.384-0.384c-0.411-0.256-0.733-0.635-0.968-1.136l-0.288,1.344h-0.88V56.57h1.264V60.955z M257.855,60.747
			c-0.608,0-1.115,0.194-1.521,0.584s-0.618,0.931-0.64,1.624v1.248c0,0.704,0.211,1.267,0.632,1.688
			c0.422,0.422,0.931,0.632,1.528,0.632s1.114-0.264,1.552-0.792c0.438-0.527,0.656-1.229,0.656-2.104s-0.216-1.573-0.648-2.096
			C258.983,61.008,258.464,60.747,257.855,60.747z"/>
		<path fill="#65382D" d="M264.479,58.011c-0.256,0-0.456-0.072-0.601-0.216c-0.144-0.145-0.216-0.336-0.216-0.576
			s0.072-0.432,0.216-0.576c0.145-0.144,0.345-0.216,0.601-0.216s0.461,0.072,0.615,0.216c0.155,0.145,0.232,0.336,0.232,0.576
			s-0.077,0.432-0.232,0.576C264.94,57.938,264.735,58.011,264.479,58.011z M263.855,59.803h1.264v7.664h-1.264V59.803z"/>
		<path fill="#65382D" d="M268.728,60.667c0.656-0.693,1.517-1.04,2.584-1.04c1.066,0,1.928,0.347,2.584,1.04
			s0.983,1.686,0.983,2.976c0,1.28-0.327,2.267-0.983,2.96s-1.518,1.04-2.584,1.04c-1.067,0-1.928-0.347-2.584-1.04
			s-0.984-1.68-0.984-2.96C267.743,62.353,268.071,61.36,268.728,60.667z M273.6,63.635c0-0.912-0.192-1.627-0.576-2.144
			c-0.384-0.518-0.947-0.776-1.688-0.776s-1.31,0.259-1.703,0.776c-0.396,0.517-0.593,1.231-0.593,2.144s0.187,1.627,0.561,2.144
			c0.373,0.518,0.931,0.776,1.672,0.776s1.314-0.259,1.72-0.776C273.396,65.262,273.6,64.547,273.6,63.635z"/>
		<path fill="#65382D" d="M224.191,77.227c1.078,0,1.944,0.27,2.601,0.809c0.656,0.538,1.106,1.239,1.352,2.104l-1.359,0.272
			c-0.214-0.63-0.547-1.128-1-1.496c-0.454-0.368-0.984-0.552-1.593-0.552c-0.842,0-1.541,0.352-2.096,1.056
			s-0.832,1.683-0.832,2.936c0,1.254,0.248,2.259,0.744,3.017c0.496,0.757,1.224,1.136,2.184,1.136c0.801,0,1.433-0.211,1.896-0.632
			c0.464-0.422,0.696-0.979,0.696-1.672h1.359c0,1.056-0.359,1.894-1.08,2.512c-0.72,0.619-1.706,0.928-2.96,0.928
			c-1.253,0-2.267-0.479-3.04-1.439s-1.159-2.245-1.159-3.856c0-1.61,0.399-2.866,1.199-3.768
			C221.904,77.678,222.934,77.227,224.191,77.227z"/>
		<path fill="#65382D" d="M230.512,76.57h1.264v10.896h-1.264V76.57z"/>
		<path fill="#65382D" d="M235.696,78.011c-0.256,0-0.456-0.072-0.601-0.216c-0.144-0.145-0.216-0.336-0.216-0.576
			s0.072-0.432,0.216-0.576c0.145-0.144,0.345-0.216,0.601-0.216s0.461,0.072,0.615,0.216c0.155,0.145,0.232,0.336,0.232,0.576
			s-0.077,0.432-0.232,0.576C236.157,77.938,235.952,78.011,235.696,78.011z M235.072,79.803h1.264v7.664h-1.264V79.803z"/>
		<path fill="#65382D" d="M240.992,81.291c0.501-1.109,1.36-1.664,2.576-1.664c0.661,0,1.216,0.162,1.664,0.488
			c0.447,0.325,0.773,0.775,0.976,1.352c0.48-1.227,1.371-1.84,2.672-1.84c0.918,0,1.627,0.299,2.128,0.896
			c0.502,0.598,0.752,1.414,0.752,2.448v4.496h-1.248v-4.496c0-0.736-0.173-1.29-0.52-1.664c-0.347-0.373-0.846-0.56-1.496-0.56
			s-1.154,0.267-1.512,0.8s-0.536,1.27-0.536,2.208v3.712H245.2v-4.496c0-0.736-0.174-1.29-0.521-1.664
			c-0.347-0.373-0.84-0.56-1.479-0.56s-1.157,0.261-1.552,0.784c-0.396,0.522-0.604,1.247-0.624,2.176v3.76h-1.265v-7.648h1.089
			L240.992,81.291z"/>
		<path fill="#65382D" d="M259.312,82.507c0-0.693-0.145-1.189-0.433-1.488c-0.288-0.298-0.706-0.448-1.256-0.448
			s-0.992,0.11-1.328,0.328c-0.336,0.219-0.504,0.563-0.504,1.032H254.4c0-1.173,0.629-1.898,1.888-2.176
			c0.384-0.085,0.8-0.128,1.248-0.128c0.949,0,1.69,0.24,2.224,0.72c0.533,0.48,0.801,1.211,0.801,2.192v4.928h-1.089l-0.128-1.28
			c-0.469,0.971-1.317,1.456-2.544,1.456c-0.821,0-1.479-0.229-1.976-0.688c-0.496-0.459-0.744-1.029-0.744-1.712
			s0.274-1.217,0.824-1.601c0.549-0.384,1.234-0.576,2.056-0.576s1.605,0.139,2.353,0.416V82.507z M259.312,84.283
			c-0.758-0.214-1.419-0.32-1.984-0.32s-1.024,0.102-1.376,0.304c-0.352,0.203-0.528,0.522-0.528,0.96c0,0.96,0.544,1.44,1.632,1.44
			c0.608,0,1.131-0.214,1.568-0.641c0.438-0.426,0.667-0.976,0.688-1.647V84.283z M259.76,76.891l-3.903,1.809l-0.368-0.801
			l3.76-2.128L259.76,76.891z"/>
		<path fill="#65382D" d="M267.553,87.243c-0.918,0.426-1.755,0.517-2.513,0.271c-0.544-0.17-0.928-0.528-1.151-1.072
			c-0.117-0.266-0.176-0.586-0.176-0.96v-4.704h-1.232v-0.96h1.232V77.69h1.248v2.128h2.399v0.96h-2.399v4.688
			c0,0.778,0.362,1.168,1.088,1.168c0.395,0,0.837-0.096,1.328-0.288L267.553,87.243z"/>
		<path fill="#65382D" d="M270.272,78.011c-0.256,0-0.456-0.072-0.601-0.216c-0.144-0.145-0.216-0.336-0.216-0.576
			s0.072-0.432,0.216-0.576c0.145-0.144,0.345-0.216,0.601-0.216s0.461,0.072,0.615,0.216c0.155,0.145,0.232,0.336,0.232,0.576
			s-0.077,0.432-0.232,0.576C270.733,77.938,270.528,78.011,270.272,78.011z M269.648,79.803h1.264v7.664h-1.264V79.803z"/>
		<path fill="#65382D" d="M276.904,79.627c0.901,0,1.618,0.231,2.152,0.696c0.533,0.464,0.88,1.042,1.04,1.735l-1.28,0.112
			c-0.139-0.448-0.363-0.797-0.672-1.048c-0.31-0.251-0.651-0.376-1.024-0.376c-0.683,0-1.234,0.256-1.656,0.768
			c-0.421,0.512-0.632,1.208-0.632,2.088s0.205,1.587,0.616,2.12c0.41,0.533,0.923,0.8,1.536,0.8s1.072-0.141,1.376-0.424
			c0.304-0.282,0.456-0.686,0.456-1.208h1.296c0,0.821-0.285,1.485-0.856,1.992c-0.57,0.507-1.314,0.76-2.231,0.76
			c-0.971,0-1.795-0.368-2.472-1.104c-0.678-0.736-1.017-1.715-1.017-2.937c0-1.221,0.336-2.189,1.008-2.903
			C275.217,79.984,276.003,79.627,276.904,79.627z"/>
		<path fill="#65382D" d="M282.761,80.667c0.656-0.693,1.517-1.04,2.584-1.04c1.066,0,1.928,0.347,2.584,1.04
			s0.983,1.686,0.983,2.976c0,1.28-0.327,2.267-0.983,2.96s-1.518,1.04-2.584,1.04c-1.067,0-1.928-0.347-2.584-1.04
			s-0.984-1.68-0.984-2.96C281.776,82.353,282.104,81.36,282.761,80.667z M287.633,83.635c0-0.912-0.192-1.627-0.576-2.144
			c-0.384-0.518-0.947-0.776-1.688-0.776s-1.31,0.259-1.703,0.776c-0.396,0.517-0.593,1.231-0.593,2.144s0.187,1.627,0.561,2.144
			c0.373,0.518,0.931,0.776,1.672,0.776s1.314-0.259,1.72-0.776C287.43,85.262,287.633,84.547,287.633,83.635z"/>
	</g>
</g>
<g id="Calque_3" display="none">
	<g display="inline" opacity="0.7">
		<path d="M39.318,20.045h16.508l18,54.845H61.262L57.46,63.059H37.092L33.206,74.89H20.642L39.318,20.045z M39.628,55.538h15.381
			L47.403,31.96L39.628,55.538z"/>
	</g>
</g>
<g id="Calque_4">
	<g>
		<path fill="#482A25" d="M132.907,65.717c-3.278,2.845-7.539,4.588-12.221,4.588c-10.336,0-18.717-8.382-18.717-18.718
			c0-10.338,8.381-18.718,18.717-18.718c3.852,0,7.418,1.177,10.392,3.174l2.566-3.277c-3.684-2.553-8.145-4.054-12.958-4.054
			c-12.612,0-22.875,10.259-22.875,22.875c0,12.612,10.262,22.875,22.875,22.875c5.685,0,10.865-2.112,14.867-5.562L132.907,65.717z
			"/>
		<path fill="#482A25" d="M144.291,79.397c-6.368,5.417-14.607,8.695-23.604,8.695c-20.13,0-36.507-16.377-36.507-36.506
			c0-20.133,16.377-36.509,36.507-36.509c7.979,0,15.358,2.583,21.37,6.942l2.577-3.293c-6.719-4.903-14.992-7.809-23.947-7.809
			c-22.458,0-40.667,18.207-40.667,40.668c0,22.459,18.208,40.662,40.667,40.662c10.02,0,19.194-3.621,26.284-9.632L144.291,79.397z
			"/>
		<path fill="#482A25" d="M138.647,72.618c-4.839,4.143-11.107,6.656-17.963,6.656c-15.265,0-27.688-12.424-27.688-27.688
			c0-15.269,12.424-27.69,27.69-27.69c5.932,0,11.416,1.89,15.921,5.085l2.575-3.291c-5.216-3.739-11.599-5.955-18.494-5.955
			c-17.562,0-31.847,14.287-31.847,31.851c0,17.557,14.286,31.845,31.847,31.845c7.865,0,15.061-2.876,20.62-7.616L138.647,72.618z"
			/>
	</g>
	<g>
		<path fill="#32E486" d="M155.421,41.558c2.479,3.502,6.582,5.982,11.11,5.982c5.642,0,11.195-4.444,11.195-10.853
			c0-6.239-5.129-10.94-11.793-10.94c-2.394,0-4.957,0.599-7.18,1.708v-6.837L169.95,7.373h-20.001V-2.885h36.323v6.837
			l-10.854,13.333c8.204,3.162,13.844,10.341,13.844,19.399c0,12.65-9.914,21.11-22.304,21.11c-7.437,0-14.529-3.333-19.828-9.313
			L155.421,41.558z"/>
	</g>
	<g>
		<polygon fill="#482A25" points="21.487,77.36 40.374,77.36 42.742,61.118 24.151,61.118 		"/>
		<polygon fill="#482A25" points="49.978,11.484 32.313,11.484 45.042,45.341 		"/>
	</g>
	<polygon fill="#65382D" points="81.444,91.258 49.999,11.484 32.313,11.484 50.973,61.118 19.208,61.118 19.208,77.36 57.08,77.36 
		62.304,91.258 	"/>
	<g>
		<polygon fill="#482A25" points="21.487,77.36 40.374,77.36 42.742,61.118 24.151,61.118 		"/>
		<polygon fill="#482A25" points="49.978,11.484 32.313,11.484 45.042,45.341 		"/>
	</g>
	<polygon fill="#8F4C3A" points="32.292,11.484 49.978,11.484 19.987,91.258 0.847,91.258 	"/>
</g>
</svg>
