<?xml version="1.0" encoding="utf-8"?>
<!-- Generator: Adobe Illustrator 15.0.0, SVG Export Plug-In . SVG Version: 6.00 Build 0)  -->
<!DOCTYPE svg PUBLIC "-//W3C//DTD SVG 1.1//EN" "http://www.w3.org/Graphics/SVG/1.1/DTD/svg11.dtd">
<svg version="1.1" id="Calque_1" xmlns="http://www.w3.org/2000/svg" xmlns:xlink="http://www.w3.org/1999/xlink" x="0px" y="0px"
	 width="320px" height="120px" viewBox="0 0 320 120" enable-background="new 0 0 320 120" xml:space="preserve">
<g id="Calque_2" display="none">
	<polygon display="inline" fill="#1A578B" points="61.648,20.045 74.076,20.045 53.458,69.961 41.037,69.961 	"/>
	<rect x="61.919" y="20.045" display="inline" fill="#007AC8" width="12.157" height="54.844"/>
	<rect x="20.364" y="20.045" display="inline" fill="#1A578B" width="12.158" height="54.844"/>
	<g display="inline">
		<polygon fill="#007AC8" points="33.063,20.045 20.364,20.045 41.037,69.961 53.458,69.961 		"/>
	</g>
</g>
<g id="Layer_1">
	<g>
		<path fill="#65382D" d="M224.191,27.227c1.078,0,1.942,0.27,2.601,0.808c0.656,0.539,1.106,1.24,1.353,2.104l-1.358,0.272
			c-0.216-0.629-0.548-1.128-1-1.496c-0.454-0.368-0.984-0.552-1.595-0.552c-0.842,0-1.541,0.352-2.096,1.056
			s-0.832,1.683-0.832,2.936s0.248,2.259,0.744,3.016c0.496,0.758,1.225,1.136,2.184,1.136c0.803,0,1.435-0.21,1.896-0.632
			s0.696-0.979,0.696-1.672h1.358c0,1.056-0.358,1.894-1.08,2.512c-0.721,0.619-1.705,0.928-2.959,0.928s-2.269-0.48-3.041-1.44
			s-1.158-2.245-1.158-3.856c0-1.61,0.397-2.866,1.199-3.768C221.904,27.678,222.934,27.227,224.191,27.227z"/>
		<path fill="#65382D" d="M231.216,28.011c-0.256,0-0.456-0.072-0.601-0.216s-0.217-0.336-0.217-0.576
			c0-0.24,0.072-0.432,0.217-0.576s0.345-0.216,0.601-0.216c0.257,0,0.461,0.072,0.615,0.216c0.155,0.144,0.231,0.336,0.231,0.576
			c0,0.24-0.076,0.432-0.231,0.576C231.677,27.939,231.473,28.011,231.216,28.011z M230.592,29.803h1.264v7.664h-1.264V29.803z"/>
		<path fill="#65382D" d="M240.496,35.947c-0.523,1.109-1.371,1.664-2.544,1.664c-0.864,0-1.562-0.24-2.089-0.72
			s-0.793-1.221-0.793-2.224v-4.864h1.266v4.768c0,1.291,0.598,1.936,1.792,1.936c0.692,0,1.256-0.267,1.688-0.8
			c0.433-0.534,0.658-1.216,0.681-2.048v-3.856h1.265v7.664h-1.265L240.496,35.947L240.496,35.947z"/>
		<path fill="#65382D" d="M250,30.955v-4.384h1.248v10.896h-1.023l-0.16-1.28c-0.246,0.48-0.569,0.843-0.977,1.088
			c-0.406,0.245-0.848,0.368-1.328,0.368c-0.971,0-1.783-0.373-2.439-1.12c-0.654-0.747-0.982-1.72-0.982-2.92
			c0-1.2,0.322-2.163,0.969-2.888c0.646-0.725,1.463-1.088,2.447-1.088S249.488,30.069,250,30.955z M247.824,30.747
			c-0.619,0-1.139,0.262-1.561,0.784c-0.423,0.523-0.634,1.222-0.634,2.096s0.216,1.576,0.642,2.104
			c0.427,0.528,0.938,0.792,1.535,0.792s1.105-0.2,1.527-0.6c0.421-0.4,0.645-0.936,0.664-1.608v-1.248
			c0-0.714-0.208-1.28-0.624-1.696S248.441,30.747,247.824,30.747z"/>
		<path fill="#65382D" d="M259.23,32.507c0-0.693-0.145-1.189-0.433-1.488c-0.288-0.298-0.707-0.448-1.256-0.448
			c-0.55,0-0.992,0.109-1.328,0.328c-0.336,0.219-0.504,0.562-0.504,1.032h-1.394c0-1.173,0.629-1.898,1.89-2.176
			c0.384-0.085,0.8-0.128,1.248-0.128c0.948,0,1.688,0.24,2.224,0.72s0.801,1.211,0.801,2.192v4.928h-1.088l-0.129-1.28
			c-0.47,0.971-1.316,1.456-2.544,1.456c-0.832,0-1.491-0.229-1.981-0.688c-0.491-0.458-0.736-1.029-0.736-1.712
			c0-0.683,0.277-1.216,0.832-1.6c0.544-0.384,1.227-0.576,2.048-0.576s1.604,0.139,2.353,0.416v-0.976H259.23z M259.23,34.283
			c-0.756-0.213-1.418-0.32-1.982-0.32s-1.023,0.102-1.376,0.304c-0.353,0.203-0.528,0.523-0.528,0.96c0,0.96,0.545,1.44,1.633,1.44
			c0.619,0,1.148-0.222,1.592-0.664C259.011,35.56,259.23,34.987,259.23,34.283z"/>
		<path fill="#65382D" d="M268.464,30.955v-4.384h1.248v10.896h-1.024l-0.158-1.28c-0.245,0.48-0.57,0.843-0.978,1.088
			c-0.405,0.245-0.848,0.368-1.327,0.368c-0.972,0-1.785-0.373-2.438-1.12c-0.656-0.747-0.984-1.72-0.984-2.92
			c0-1.2,0.322-2.163,0.97-2.888c0.646-0.725,1.461-1.088,2.446-1.088C267.204,29.627,267.952,30.069,268.464,30.955z
			 M266.288,30.747c-0.619,0-1.14,0.262-1.562,0.784c-0.42,0.523-0.632,1.222-0.632,2.096s0.214,1.576,0.642,2.104
			c0.426,0.528,0.938,0.792,1.535,0.792c0.597,0,1.104-0.2,1.526-0.6c0.422-0.4,0.644-0.936,0.664-1.608v-1.248
			c0-0.714-0.208-1.28-0.624-1.696S266.906,30.747,266.288,30.747z"/>
		<path fill="#65382D" d="M275.6,36.619c1.058,0,1.658-0.464,1.811-1.392h1.296c-0.118,0.768-0.456,1.363-1.019,1.784
			c-0.56,0.421-1.256,0.632-2.088,0.632c-1.021,0-1.854-0.365-2.496-1.096c-0.64-0.73-0.959-1.704-0.959-2.92
			s0.321-2.187,0.967-2.912c0.646-0.725,1.507-1.088,2.576-1.088c1.072,0,1.873,0.416,2.4,1.248s0.712,1.845,0.553,3.04h-5.23
			c0,0.789,0.189,1.438,0.574,1.944C274.368,36.366,274.906,36.619,275.6,36.619z M276.527,30.827
			c-0.245-0.128-0.545-0.192-0.896-0.192c-0.65,0-1.166,0.222-1.544,0.664c-0.379,0.443-0.601,0.995-0.664,1.656h4.08
			C277.504,31.888,277.18,31.179,276.527,30.827z"/>
		<path fill="#65382D" d="M281.607,30.187c0.539-0.374,1.267-0.56,2.185-0.56c0.917,0,1.635,0.192,2.151,0.576
			c0.518,0.384,0.787,0.87,0.809,1.456h-1.232c-0.096-0.693-0.683-1.04-1.76-1.04c-0.521,0-0.925,0.118-1.208,0.352
			c-0.282,0.235-0.424,0.488-0.424,0.76s0.106,0.501,0.319,0.688c0.214,0.187,0.556,0.349,1.022,0.488l1.536,0.512
			c0.65,0.203,1.148,0.461,1.496,0.776s0.521,0.747,0.521,1.296c0,0.55-0.282,1.045-0.85,1.488
			c-0.564,0.442-1.354,0.664-2.367,0.664s-1.804-0.226-2.367-0.68c-0.565-0.453-0.863-1.037-0.896-1.752h1.216
			c0.021,0.48,0.218,0.84,0.584,1.08c0.368,0.24,0.829,0.36,1.386,0.36c0.555,0,1.014-0.117,1.375-0.352
			c0.362-0.234,0.545-0.515,0.545-0.84s-0.106-0.573-0.319-0.744c-0.214-0.17-0.562-0.32-1.04-0.448l-1.488-0.496
			c-1.333-0.395-2-1.088-2-2.08C280.8,31.062,281.068,30.56,281.607,30.187z"/>
		<path fill="#65382D" d="M222.96,47.403h1.536l3.376,10.064h-1.312l-0.863-2.56h-4l-0.864,2.56h-1.328L222.96,47.403z
			 M222.032,53.915h3.344l-1.664-4.96L222.032,53.915z"/>
		<path fill="#65382D" d="M231.12,51.291c0.501-1.109,1.36-1.664,2.575-1.664c0.906,0,1.613,0.299,2.121,0.896
			c0.506,0.597,0.76,1.414,0.76,2.448v4.496h-1.248v-4.496c0-0.736-0.174-1.291-0.521-1.664c-0.347-0.373-0.84-0.56-1.479-0.56
			s-1.157,0.262-1.553,0.784c-0.396,0.523-0.604,1.248-0.623,2.176v3.76h-1.267v-7.648h1.091L231.12,51.291z"/>
		<path fill="#65382D" d="M244.561,50.955v-4.384h1.248v10.896h-1.022l-0.159-1.28c-0.246,0.48-0.57,0.843-0.979,1.088
			c-0.404,0.245-0.848,0.368-1.328,0.368c-0.971,0-1.782-0.373-2.438-1.12c-0.654-0.747-0.982-1.72-0.982-2.92
			s0.322-2.163,0.968-2.888c0.646-0.725,1.462-1.088,2.448-1.088C243.3,49.627,244.049,50.069,244.561,50.955z M242.385,50.747
			c-0.619,0-1.139,0.262-1.561,0.784c-0.422,0.523-0.633,1.222-0.633,2.096s0.215,1.576,0.642,2.104
			c0.426,0.528,0.938,0.792,1.535,0.792c0.598,0,1.106-0.2,1.528-0.6c0.42-0.4,0.643-0.936,0.664-1.608v-1.248
			c0-0.714-0.209-1.28-0.625-1.696S243.003,50.747,242.385,50.747z"/>
		<path fill="#65382D" d="M249.762,48.011c-0.257,0-0.457-0.072-0.602-0.216s-0.217-0.336-0.217-0.576
			c0-0.24,0.072-0.432,0.217-0.576s0.345-0.216,0.602-0.216c0.256,0,0.461,0.072,0.614,0.216c0.155,0.144,0.231,0.336,0.231,0.576
			c0,0.24-0.076,0.432-0.231,0.576C250.223,47.939,250.018,48.011,249.762,48.011z M249.137,49.803h1.264v7.664h-1.264V49.803z"/>
		<path fill="#65382D" d="M255.057,51.291c0.502-1.109,1.36-1.664,2.576-1.664c0.906,0,1.613,0.299,2.12,0.896
			c0.506,0.597,0.761,1.414,0.761,2.448v4.496h-1.248v-4.496c0-0.736-0.175-1.291-0.521-1.664c-0.349-0.373-0.841-0.56-1.479-0.56
			c-0.64,0-1.158,0.262-1.553,0.784c-0.396,0.523-0.604,1.248-0.624,2.176v3.76h-1.265v-7.648h1.089L255.057,51.291z"/>
		<path fill="#65382D" d="M268.225,52.507c0-0.693-0.145-1.189-0.433-1.488c-0.288-0.298-0.707-0.448-1.256-0.448
			c-0.55,0-0.992,0.109-1.328,0.328c-0.336,0.219-0.504,0.562-0.504,1.032h-1.392c0-1.173,0.629-1.898,1.888-2.176
			c0.384-0.085,0.8-0.128,1.247-0.128c0.949,0,1.691,0.24,2.225,0.72c0.534,0.48,0.801,1.211,0.801,2.192v4.928h-1.089l-0.128-1.28
			c-0.47,0.971-1.316,1.456-2.544,1.456c-0.832,0-1.493-0.229-1.983-0.688c-0.489-0.458-0.734-1.029-0.734-1.712
			c0-0.683,0.275-1.216,0.832-1.6c0.544-0.384,1.227-0.576,2.048-0.576c0.819,0,1.604,0.139,2.353,0.416v-0.976H268.225z
			 M268.225,54.283c-0.758-0.213-1.418-0.32-1.982-0.32c-0.565,0-1.024,0.102-1.376,0.304c-0.354,0.203-0.528,0.523-0.528,0.96
			c0,0.96,0.544,1.44,1.632,1.44c0.619,0,1.149-0.222,1.595-0.664C268.003,55.56,268.225,54.987,268.225,54.283z"/>
		<path fill="#65382D" d="M272.855,50.187c0.539-0.374,1.267-0.56,2.185-0.56c0.917,0,1.635,0.192,2.151,0.576
			c0.518,0.384,0.787,0.87,0.809,1.456h-1.232c-0.096-0.693-0.683-1.04-1.76-1.04c-0.521,0-0.925,0.118-1.208,0.352
			c-0.282,0.235-0.424,0.488-0.424,0.76s0.106,0.501,0.319,0.688c0.214,0.187,0.556,0.349,1.022,0.488l1.536,0.512
			c0.648,0.203,1.148,0.461,1.496,0.776s0.521,0.747,0.521,1.296c0,0.55-0.283,1.045-0.85,1.488
			c-0.564,0.442-1.354,0.664-2.367,0.664s-1.804-0.226-2.367-0.68c-0.565-0.453-0.863-1.037-0.896-1.752h1.216
			c0.021,0.48,0.218,0.84,0.584,1.08c0.368,0.24,0.829,0.36,1.386,0.36c0.555,0,1.014-0.117,1.375-0.352
			c0.362-0.234,0.545-0.515,0.545-0.84s-0.106-0.573-0.319-0.744c-0.214-0.17-0.562-0.32-1.04-0.448l-1.488-0.496
			c-1.333-0.395-2-1.088-2-2.08C272.048,51.062,272.316,50.56,272.855,50.187z"/>
		<path fill="#65382D" d="M283.136,59.69c0.522,0.405,1.072,0.608,1.647,0.608c0.427,0,0.795-0.214,1.104-0.64
			c0.225-0.31,0.428-0.779,0.608-1.408l0.224-0.784l-3.136-7.648h1.407l2.32,6.096l1.809-6.096h1.279l-2.863,9.167
			c-0.246,0.779-0.568,1.377-0.969,1.792c-0.399,0.416-0.906,0.623-1.521,0.623s-1.251-0.187-1.912-0.56V59.69H283.136z"/>
		<path fill="#65382D" d="M224.191,67.227c1.078,0,1.942,0.271,2.601,0.81c0.656,0.538,1.106,1.239,1.353,2.104l-1.358,0.271
			c-0.216-0.63-0.548-1.128-1-1.496c-0.454-0.368-0.984-0.552-1.595-0.552c-0.842,0-1.541,0.352-2.096,1.056
			s-0.832,1.684-0.832,2.936c0,1.254,0.248,2.261,0.744,3.019c0.496,0.757,1.225,1.136,2.184,1.136c0.803,0,1.435-0.211,1.896-0.632
			c0.465-0.422,0.696-0.979,0.696-1.672h1.358c0,1.058-0.358,1.896-1.08,2.512c-0.721,0.619-1.705,0.929-2.959,0.929
			s-2.269-0.479-3.041-1.438c-0.772-0.96-1.158-2.245-1.158-3.856c0-1.608,0.397-2.865,1.199-3.768
			C221.904,67.678,222.934,67.227,224.191,67.227z"/>
		<path fill="#65382D" d="M235.247,72.507c0-0.692-0.144-1.188-0.433-1.487c-0.287-0.299-0.707-0.449-1.256-0.449
			c-0.551,0-0.992,0.111-1.328,0.328c-0.336,0.221-0.504,0.563-0.504,1.033h-1.393c0-1.174,0.629-1.897,1.889-2.177
			c0.385-0.085,0.801-0.128,1.248-0.128c0.948,0,1.689,0.24,2.225,0.721c0.533,0.479,0.8,1.211,0.8,2.191v4.928h-1.088l-0.128-1.279
			c-0.471,0.972-1.317,1.455-2.545,1.455c-0.832,0-1.492-0.229-1.982-0.688s-0.736-1.029-0.736-1.712s0.277-1.218,0.832-1.601
			c0.545-0.386,1.229-0.576,2.049-0.576s1.604,0.139,2.353,0.416L235.247,72.507L235.247,72.507z M235.247,74.283
			c-0.757-0.215-1.418-0.32-1.983-0.32c-0.563,0-1.022,0.102-1.375,0.305c-0.354,0.203-0.529,0.521-0.529,0.959
			c0,0.961,0.545,1.44,1.634,1.44c0.618,0,1.147-0.222,1.593-0.664C235.025,75.561,235.247,74.986,235.247,74.283z"/>
		<path fill="#65382D" d="M240.688,71.291c0.502-1.109,1.36-1.664,2.576-1.664c0.661,0,1.217,0.162,1.664,0.488
			c0.447,0.324,0.773,0.775,0.977,1.352c0.479-1.227,1.371-1.84,2.673-1.84c0.918,0,1.627,0.299,2.128,0.896
			c0.502,0.598,0.752,1.414,0.752,2.447v4.495h-1.248v-4.495c0-0.736-0.173-1.289-0.521-1.664c-0.347-0.373-0.846-0.561-1.496-0.561
			c-0.648,0-1.152,0.268-1.512,0.8c-0.356,0.533-0.535,1.271-0.535,2.208v3.712h-1.248v-4.495c0-0.736-0.174-1.289-0.521-1.664
			c-0.349-0.373-0.84-0.561-1.479-0.561s-1.156,0.261-1.553,0.783c-0.396,0.521-0.604,1.246-0.623,2.177v3.76h-1.266v-7.647h1.089
			L240.688,71.291z"/>
		<path fill="#65382D" d="M255.695,70.955c0.512-0.887,1.259-1.328,2.24-1.328c0.979,0,1.797,0.365,2.446,1.096
			c0.65,0.731,0.978,1.696,0.978,2.896c0,1.199-0.332,2.17-0.992,2.912c-0.661,0.74-1.467,1.111-2.416,1.111
			c-0.512,0-0.975-0.129-1.385-0.386c-0.41-0.256-0.732-0.635-0.967-1.136l-0.289,1.344h-0.879V66.57h1.264V70.955L255.695,70.955z
			 M257.855,70.747c-0.608,0-1.115,0.194-1.521,0.584s-0.618,0.931-0.641,1.624v1.248c0,0.704,0.211,1.268,0.633,1.688
			c0.422,0.422,0.931,0.633,1.527,0.633c0.598,0,1.114-0.265,1.553-0.793c0.438-0.525,0.656-1.229,0.656-2.104
			s-0.217-1.572-0.648-2.096C258.982,71.007,258.464,70.747,257.855,70.747z"/>
		<path fill="#65382D" d="M264.479,68.011c-0.256,0-0.455-0.071-0.601-0.216c-0.144-0.145-0.216-0.336-0.216-0.576
			s0.072-0.432,0.216-0.576c0.146-0.144,0.345-0.216,0.601-0.216s0.461,0.072,0.615,0.216c0.155,0.146,0.232,0.336,0.232,0.576
			s-0.077,0.432-0.232,0.576C264.939,67.938,264.734,68.011,264.479,68.011z M263.855,69.803h1.264v7.664h-1.264V69.803z"/>
		<path fill="#65382D" d="M268.729,70.667c0.655-0.692,1.518-1.04,2.584-1.04c1.065,0,1.929,0.348,2.584,1.04
			c0.656,0.692,0.982,1.687,0.982,2.976c0,1.28-0.326,2.269-0.982,2.961c-0.655,0.692-1.519,1.039-2.584,1.039
			c-1.066,0-1.929-0.347-2.584-1.039s-0.983-1.681-0.983-2.961C267.743,72.354,268.07,71.359,268.729,70.667z M273.6,73.635
			c0-0.912-0.19-1.627-0.576-2.144c-0.383-0.519-0.945-0.776-1.688-0.776c-0.74,0-1.311,0.26-1.703,0.776
			c-0.396,0.517-0.593,1.231-0.593,2.144c0,0.913,0.187,1.627,0.562,2.145c0.373,0.519,0.932,0.775,1.672,0.775
			s1.313-0.259,1.721-0.775C273.396,75.262,273.6,74.547,273.6,73.635z"/>
		<path fill="#65382D" d="M224.191,87.227c1.078,0,1.942,0.271,2.601,0.811c0.656,0.538,1.106,1.238,1.353,2.104l-1.358,0.271
			c-0.216-0.63-0.548-1.128-1-1.496c-0.454-0.368-0.984-0.553-1.595-0.553c-0.842,0-1.541,0.353-2.096,1.057
			s-0.832,1.684-0.832,2.936c0,1.254,0.248,2.261,0.744,3.019c0.496,0.757,1.225,1.136,2.184,1.136c0.803,0,1.435-0.211,1.896-0.632
			c0.465-0.422,0.696-0.979,0.696-1.672h1.358c0,1.056-0.358,1.896-1.08,2.512c-0.721,0.619-1.705,0.929-2.959,0.929
			s-2.269-0.479-3.041-1.438c-0.772-0.96-1.158-2.245-1.158-3.856c0-1.608,0.397-2.865,1.199-3.768
			C221.904,87.678,222.934,87.227,224.191,87.227z"/>
		<path fill="#65382D" d="M230.512,86.57h1.264v10.896h-1.264V86.57z"/>
		<path fill="#65382D" d="M235.695,88.011c-0.256,0-0.455-0.071-0.6-0.216c-0.146-0.145-0.218-0.336-0.218-0.576
			s0.072-0.432,0.218-0.576c0.145-0.144,0.344-0.216,0.6-0.216c0.257,0,0.462,0.072,0.615,0.216
			c0.154,0.146,0.231,0.336,0.231,0.576s-0.077,0.432-0.231,0.576C236.157,87.938,235.952,88.011,235.695,88.011z M235.072,89.803
			h1.264v7.664h-1.264V89.803z"/>
		<path fill="#65382D" d="M240.992,91.291c0.501-1.109,1.359-1.664,2.576-1.664c0.66,0,1.216,0.162,1.664,0.488
			c0.447,0.324,0.771,0.775,0.976,1.352c0.479-1.227,1.371-1.84,2.672-1.84c0.918,0,1.627,0.299,2.128,0.896
			c0.502,0.598,0.752,1.414,0.752,2.447v4.495h-1.248v-4.495c0-0.736-0.173-1.289-0.52-1.664c-0.348-0.373-0.846-0.561-1.496-0.561
			s-1.154,0.268-1.512,0.8c-0.358,0.533-0.536,1.271-0.536,2.208v3.712H245.2v-4.495c0-0.736-0.175-1.289-0.521-1.664
			c-0.349-0.373-0.842-0.561-1.479-0.561c-0.64,0-1.157,0.261-1.552,0.783c-0.396,0.521-0.604,1.246-0.625,2.177v3.76h-1.266v-7.647
			h1.09L240.992,91.291z"/>
		<path fill="#65382D" d="M259.312,92.507c0-0.692-0.146-1.188-0.435-1.487s-0.706-0.449-1.256-0.449
			c-0.552,0-0.992,0.111-1.328,0.328c-0.336,0.221-0.504,0.563-0.504,1.033h-1.39c0-1.174,0.629-1.897,1.888-2.177
			c0.384-0.085,0.8-0.128,1.248-0.128c0.948,0,1.69,0.24,2.224,0.721c0.533,0.479,0.801,1.211,0.801,2.191v4.928h-1.088
			l-0.129-1.279c-0.469,0.972-1.316,1.455-2.544,1.455c-0.821,0-1.479-0.229-1.976-0.688c-0.497-0.459-0.744-1.029-0.744-1.712
			s0.273-1.218,0.824-1.601c0.549-0.386,1.234-0.576,2.056-0.576s1.604,0.139,2.353,0.416V92.507L259.312,92.507z M259.312,94.283
			c-0.758-0.215-1.42-0.32-1.984-0.32s-1.023,0.102-1.376,0.305s-0.528,0.521-0.528,0.959c0,0.961,0.544,1.44,1.633,1.44
			c0.607,0,1.131-0.214,1.567-0.642c0.438-0.426,0.667-0.977,0.688-1.646V94.283L259.312,94.283z M259.76,86.891l-3.902,1.811
			l-0.367-0.803l3.76-2.127L259.76,86.891z"/>
		<path fill="#65382D" d="M267.553,97.243c-0.918,0.426-1.755,0.517-2.513,0.271c-0.544-0.17-0.929-0.527-1.151-1.072
			c-0.117-0.266-0.176-0.586-0.176-0.959v-4.705h-1.232v-0.959h1.232v-2.129h1.248v2.129h2.398v0.959h-2.398v4.688
			c0,0.778,0.362,1.168,1.088,1.168c0.395,0,0.838-0.096,1.328-0.288L267.553,97.243z"/>
		<path fill="#65382D" d="M270.271,88.011c-0.256,0-0.455-0.071-0.602-0.216c-0.145-0.145-0.216-0.336-0.216-0.576
			s0.071-0.432,0.216-0.576c0.146-0.144,0.346-0.216,0.602-0.216s0.461,0.072,0.614,0.216c0.155,0.146,0.232,0.336,0.232,0.576
			s-0.077,0.432-0.232,0.576C270.732,87.938,270.527,88.011,270.271,88.011z M269.648,89.803h1.264v7.664h-1.264V89.803z"/>
		<path fill="#65382D" d="M276.904,89.627c0.9,0,1.617,0.23,2.152,0.696c0.531,0.464,0.879,1.042,1.039,1.735l-1.279,0.11
			c-0.141-0.446-0.363-0.797-0.672-1.048c-0.312-0.251-0.651-0.376-1.024-0.376c-0.683,0-1.233,0.256-1.656,0.769
			c-0.421,0.512-0.632,1.209-0.632,2.088c0,0.881,0.205,1.588,0.616,2.121c0.409,0.531,0.923,0.799,1.536,0.799
			s1.072-0.142,1.375-0.424c0.305-0.281,0.457-0.687,0.457-1.207h1.295c0,0.819-0.284,1.483-0.855,1.99
			c-0.57,0.508-1.314,0.762-2.23,0.762c-0.971,0-1.795-0.369-2.473-1.104c-0.678-0.736-1.017-1.715-1.017-2.937
			c0-1.223,0.336-2.189,1.008-2.903C275.217,89.984,276.003,89.627,276.904,89.627z"/>
		<path fill="#65382D" d="M282.761,90.667c0.656-0.692,1.517-1.04,2.585-1.04c1.065,0,1.928,0.348,2.584,1.04
			c0.655,0.692,0.982,1.687,0.982,2.976c0,1.28-0.327,2.269-0.982,2.961c-0.656,0.692-1.519,1.039-2.584,1.039
			c-1.068,0-1.929-0.347-2.585-1.039c-0.655-0.692-0.983-1.681-0.983-2.961C281.775,92.354,282.104,91.359,282.761,90.667z
			 M287.633,93.635c0-0.912-0.191-1.627-0.576-2.144c-0.384-0.519-0.947-0.776-1.688-0.776c-0.741,0-1.311,0.26-1.703,0.776
			c-0.396,0.517-0.593,1.231-0.593,2.144c0,0.913,0.187,1.627,0.561,2.145c0.373,0.519,0.931,0.775,1.673,0.775
			c0.74,0,1.313-0.259,1.719-0.775C287.43,95.262,287.633,94.547,287.633,93.635z"/>
	</g>
</g>
<g id="Calque_3" display="none">
	<g display="inline" opacity="0.7">
		<path d="M39.318,20.045h16.508l18,54.846H61.262L57.46,63.059H37.092l-3.886,11.832H20.642L39.318,20.045z M39.628,55.538h15.381
			L47.403,31.96L39.628,55.538z"/>
	</g>
</g>
<g>
	<path fill="#482A25" d="M132.907,75.717c-3.278,2.846-7.539,4.588-12.221,4.588c-10.336,0-18.717-8.382-18.717-18.718
		c0-10.338,8.381-18.718,18.717-18.718c3.852,0,7.418,1.177,10.392,3.174l2.566-3.277c-3.684-2.553-8.145-4.054-12.958-4.054
		c-12.612,0-22.875,10.259-22.875,22.875c0,12.612,10.262,22.875,22.875,22.875c5.685,0,10.865-2.112,14.867-5.562L132.907,75.717z"
		/>
	<path fill="#482A25" d="M144.291,89.396c-6.368,5.418-14.607,8.694-23.604,8.694c-20.13,0-36.507-16.377-36.507-36.506
		c0-20.133,16.377-36.509,36.507-36.509c7.979,0,15.358,2.583,21.37,6.942l2.577-3.293c-6.719-4.903-14.992-7.809-23.947-7.809
		c-22.458,0-40.667,18.207-40.667,40.668c0,22.459,18.208,40.662,40.667,40.662c10.02,0,19.194-3.621,26.284-9.632L144.291,89.396z"
		/>
	<path fill="#482A25" d="M138.647,82.618c-4.839,4.143-11.107,6.655-17.963,6.655c-15.265,0-27.688-12.424-27.688-27.688
		c0-15.269,12.424-27.69,27.69-27.69c5.932,0,11.416,1.89,15.921,5.085l2.575-3.291c-5.216-3.739-11.599-5.955-18.494-5.955
		c-17.562,0-31.847,14.287-31.847,31.851c0,17.558,14.286,31.847,31.847,31.847c7.865,0,15.061-2.877,20.62-7.617L138.647,82.618z"
		/>
</g>
<g>
	<path fill="#32E486" d="M155.421,51.558c2.479,3.502,6.582,5.982,11.11,5.982c5.642,0,11.195-4.444,11.195-10.853
		c0-6.239-5.129-10.94-11.793-10.94c-2.396,0-4.957,0.599-7.182,1.708v-6.837l11.198-13.245h-20.001V7.115h36.322v6.837
		l-10.854,13.333c8.204,3.162,13.844,10.341,13.844,19.399c0,12.65-9.913,21.11-22.304,21.11c-7.437,0-14.529-3.333-19.828-9.313
		L155.421,51.558z"/>
</g>
<polygon fill="#65382D" points="81.444,101.258 49.999,21.484 32.313,21.484 50.973,71.118 19.208,71.118 19.208,87.359 
	57.08,87.359 62.304,101.258 "/>
<g>
	<polygon fill="#482A25" points="49.978,21.484 32.313,21.484 45.042,55.341 	"/>
</g>
<polygon fill="#482A25" points="21.487,87.359 40.374,87.359 42.742,71.118 24.151,71.118 "/>
<polygon fill="#8F4C3A" points="32.292,21.484 49.978,21.484 19.987,101.258 0.847,101.258 "/>
</svg>
