<?xml version="1.0" encoding="utf-8"?>
<!-- Generator: Adobe Illustrator 15.0.0, SVG Export Plug-In . SVG Version: 6.00 Build 0)  -->
<!DOCTYPE svg PUBLIC "-//W3C//DTD SVG 1.1//EN" "http://www.w3.org/Graphics/SVG/1.1/DTD/svg11.dtd">
<svg version="1.1" id="Layer_1" xmlns="http://www.w3.org/2000/svg" xmlns:xlink="http://www.w3.org/1999/xlink" x="0px" y="0px"
	 width="244.953px" height="82px" viewBox="19.047 0 244.953 82" enable-background="new 19.047 0 244.953 82" xml:space="preserve"
	>
<path fill="none" d="M115.721,51.163c-2.254,1.955-5.183,3.151-8.401,3.151c-7.106,0-12.868-5.762-12.868-12.866
	c0-7.107,5.762-12.868,12.868-12.868c2.648,0,5.1,0.809,7.144,2.182l9.318-11.904c-4.618-3.371-10.306-5.369-16.462-5.369
	c-15.44,0-27.958,12.517-27.958,27.958c0,15.44,12.518,27.956,27.958,27.956c6.889,0,13.195-2.489,18.069-6.623L115.721,51.163z"/>
<polygon fill="#1A578B" points="60.332,13.878 72.76,13.878 52.142,63.794 39.721,63.794 "/>
<rect x="60.603" y="13.878" fill="#007AC8" width="12.157" height="54.845"/>
<rect x="19.047" y="13.878" fill="#1A578B" width="12.158" height="54.845"/>
<g>
	<polygon fill="#007AC8" points="31.747,13.878 19.047,13.878 39.721,63.794 52.142,63.794 	"/>
</g>
<g>
	<g>
		<path fill="#1A578B" d="M177.886,13.213l2.83,5.687l2.803-5.687h1.479v8.396h-1.056v-6.901l-2.884,5.846h-0.706l-2.924-5.94v6.995
			h-1.056v-8.396H177.886z"/>
		<path fill="#1A578B" d="M189.899,20.902c0.88,0,1.384-0.386,1.509-1.161h1.082c-0.098,0.641-0.38,1.136-0.848,1.488
			c-0.466,0.352-1.047,0.528-1.742,0.528c-0.854,0-1.548-0.304-2.083-0.914c-0.532-0.61-0.8-1.422-0.8-2.437
			c0-1.014,0.27-1.823,0.807-2.429c0.539-0.605,1.256-0.907,2.149-0.907s1.562,0.347,2.002,1.04c0.438,0.695,0.593,1.541,0.46,2.537
			h-4.365c0,0.659,0.161,1.199,0.48,1.622C188.871,20.69,189.32,20.902,189.899,20.902z M190.674,16.069
			c-0.205-0.106-0.456-0.16-0.747-0.16c-0.545,0-0.976,0.185-1.289,0.555c-0.315,0.369-0.501,0.83-0.556,1.381h3.404
			C191.488,16.956,191.216,16.363,190.674,16.069z"/>
		<path fill="#1A578B" d="M198.75,16.177V12.52h1.041v9.09h-0.854l-0.134-1.068c-0.203,0.4-0.475,0.702-0.812,0.909
			c-0.34,0.205-0.707,0.306-1.105,0.306c-0.812,0-1.488-0.312-2.037-0.935c-0.547-0.622-0.82-1.435-0.82-2.438
			c0-1.001,0.271-1.804,0.809-2.41c0.541-0.605,1.222-0.907,2.045-0.907C197.697,15.069,198.322,15.437,198.75,16.177z
			 M196.935,16.003c-0.517,0-0.95,0.217-1.302,0.654c-0.352,0.436-0.528,1.018-0.528,1.748c0,0.729,0.179,1.314,0.535,1.756
			c0.354,0.439,0.783,0.661,1.28,0.661c0.498,0,0.925-0.167,1.275-0.501c0.352-0.333,0.533-0.781,0.555-1.341v-1.041
			c0-0.596-0.174-1.068-0.521-1.416C197.883,16.177,197.451,16.003,196.935,16.003z"/>
		<path fill="#1A578B" d="M203.088,13.721c-0.213,0-0.379-0.06-0.5-0.181c-0.121-0.12-0.18-0.28-0.18-0.481
			c0-0.2,0.059-0.36,0.18-0.48s0.287-0.181,0.5-0.181c0.215,0,0.385,0.061,0.514,0.181c0.129,0.121,0.193,0.28,0.193,0.48
			c0,0.201-0.064,0.362-0.193,0.481S203.302,13.721,203.088,13.721z M202.566,15.215h1.057v6.394h-1.057V15.215z"/>
		<path fill="#1A578B" d="M209.83,21.422c-0.769,0.356-1.465,0.432-2.1,0.227c-0.451-0.142-0.773-0.44-0.961-0.895
			c-0.1-0.223-0.146-0.49-0.146-0.801v-3.925h-1.026v-0.801h1.026v-1.775h1.041v1.775h2.002v0.801h-2.002v3.911
			c0,0.65,0.304,0.975,0.908,0.975c0.327,0,0.696-0.08,1.105-0.241L209.83,21.422z"/>
		<path fill="#1A578B" d="M213.713,20.902c0.882,0,1.385-0.386,1.51-1.161h1.082c-0.098,0.641-0.38,1.136-0.848,1.488
			c-0.467,0.352-1.049,0.528-1.741,0.528c-0.854,0-1.55-0.304-2.083-0.914c-0.534-0.61-0.801-1.422-0.801-2.437
			c0-1.014,0.27-1.823,0.808-2.429c0.539-0.605,1.254-0.907,2.149-0.907c0.893,0,1.562,0.347,2,1.04
			c0.438,0.695,0.595,1.541,0.461,2.537h-4.364c0,0.659,0.159,1.199,0.479,1.622C212.686,20.69,213.136,20.902,213.713,20.902z
			 M214.488,16.069c-0.203-0.106-0.455-0.16-0.746-0.16c-0.545,0-0.975,0.185-1.289,0.555c-0.313,0.369-0.502,0.83-0.555,1.381
			h3.402C215.301,16.956,215.031,16.363,214.488,16.069z"/>
		<path fill="#1A578B" d="M220.988,16.124c-1.005,0-1.521,0.792-1.562,2.375v3.111h-1.054v-6.394h1.054v1.229
			c0.321-0.89,0.887-1.335,1.694-1.335c0.261,0,0.504,0.04,0.733,0.12l-0.053,1.027C221.537,16.167,221.266,16.124,220.988,16.124z"
			/>
		<path fill="#1A578B" d="M226.076,16.124c-1.006,0-1.522,0.792-1.562,2.375v3.111h-1.056v-6.394h1.056v1.229
			c0.319-0.89,0.888-1.335,1.694-1.335c0.261,0,0.502,0.04,0.734,0.12l-0.054,1.027C226.623,16.167,226.351,16.124,226.076,16.124z"
			/>
		<path fill="#1A578B" d="M232.509,17.472c0-0.579-0.121-0.992-0.361-1.242c-0.239-0.249-0.589-0.374-1.047-0.374
			c-0.459,0-0.828,0.091-1.106,0.274c-0.281,0.183-0.42,0.47-0.42,0.861h-1.162c0-0.979,0.523-1.584,1.574-1.815
			c0.318-0.072,0.666-0.106,1.04-0.106c0.792,0,1.41,0.2,1.855,0.601c0.444,0.401,0.668,1.01,0.668,1.829v4.112h-0.908l-0.106-1.068
			c-0.393,0.811-1.1,1.215-2.123,1.215c-0.686,0-1.231-0.192-1.646-0.573c-0.415-0.382-0.62-0.859-0.62-1.429
			c0-0.569,0.229-1.014,0.688-1.334c0.459-0.32,1.029-0.48,1.717-0.48c0.685,0,1.339,0.116,1.961,0.347v-0.818H232.509
			L232.509,17.472z M232.509,18.953c-0.634-0.178-1.183-0.268-1.655-0.268c-0.472,0-0.854,0.084-1.146,0.253
			c-0.291,0.169-0.439,0.436-0.439,0.801c0,0.801,0.455,1.201,1.359,1.201c0.518,0,0.959-0.185,1.328-0.554
			C232.324,20.019,232.509,19.54,232.509,18.953z"/>
		<path fill="#1A578B" d="M237.047,16.457c0.419-0.925,1.136-1.387,2.148-1.387c0.758,0,1.346,0.249,1.77,0.748
			c0.423,0.499,0.634,1.179,0.634,2.042v3.75h-1.041v-3.75c0-0.615-0.146-1.078-0.435-1.389c-0.289-0.312-0.698-0.467-1.232-0.467
			s-0.966,0.217-1.295,0.654c-0.329,0.436-0.503,1.04-0.521,1.815v3.136h-1.054v-6.381h0.906L237.047,16.457z"/>
		<path fill="#1A578B" d="M246.287,20.902c0.881,0,1.383-0.386,1.51-1.161h1.08c-0.098,0.641-0.381,1.136-0.848,1.488
			s-1.047,0.528-1.742,0.528c-0.854,0-1.549-0.304-2.082-0.914c-0.533-0.61-0.801-1.422-0.801-2.437
			c0-1.014,0.271-1.823,0.807-2.429c0.541-0.605,1.257-0.907,2.149-0.907c0.894,0,1.562,0.347,2.003,1.04
			c0.438,0.695,0.592,1.541,0.459,2.537h-4.365c0,0.659,0.16,1.199,0.481,1.622C245.257,20.69,245.707,20.902,246.287,20.902z
			 M247.061,16.069c-0.205-0.106-0.455-0.16-0.748-0.16c-0.544,0-0.975,0.185-1.288,0.555c-0.315,0.369-0.502,0.83-0.554,1.381h3.4
			C247.873,16.956,247.602,16.363,247.061,16.069z"/>
		<path fill="#1A578B" d="M254.91,17.472c0-0.579-0.121-0.992-0.36-1.242c-0.239-0.249-0.589-0.374-1.048-0.374
			s-0.825,0.091-1.105,0.274c-0.277,0.183-0.421,0.47-0.421,0.861h-1.162c0-0.979,0.524-1.584,1.576-1.815
			c0.315-0.072,0.666-0.106,1.039-0.106c0.794,0,1.409,0.2,1.854,0.601c0.445,0.401,0.668,1.01,0.668,1.829v4.112h-0.908
			l-0.104-1.068c-0.396,0.811-1.103,1.215-2.122,1.215c-0.688,0-1.232-0.192-1.648-0.573c-0.412-0.382-0.618-0.859-0.618-1.429
			c0-0.569,0.228-1.014,0.688-1.334c0.459-0.32,1.027-0.48,1.715-0.48c0.687,0,1.338,0.116,1.961,0.347v-0.818H254.91z
			 M254.91,18.953c-0.633-0.178-1.184-0.268-1.656-0.268c-0.471,0-0.854,0.084-1.146,0.253s-0.44,0.436-0.44,0.801
			c0,0.801,0.455,1.201,1.363,1.201c0.514,0,0.957-0.185,1.326-0.554C254.725,20.019,254.91,19.54,254.91,18.953z"/>
		<path fill="#1A578B" d="M259.449,16.457c0.418-0.925,1.135-1.387,2.148-1.387c0.757,0,1.345,0.249,1.768,0.748
			c0.422,0.499,0.635,1.179,0.635,2.042v3.75h-1.041v-3.75c0-0.615-0.145-1.078-0.434-1.389c-0.289-0.312-0.699-0.467-1.232-0.467
			s-0.969,0.217-1.295,0.654c-0.33,0.436-0.504,1.04-0.521,1.815v3.136h-1.054v-6.381h0.904L259.449,16.457z"/>
	</g>
	<g>
		<path fill="#1A578B" d="M179.287,29.085c0.897,0,1.621,0.225,2.17,0.675c0.547,0.45,0.922,1.035,1.127,1.755l-1.133,0.227
			c-0.179-0.525-0.457-0.94-0.834-1.248c-0.381-0.307-0.82-0.46-1.328-0.46c-0.703,0-1.287,0.294-1.748,0.88
			c-0.465,0.587-0.694,1.404-0.694,2.45c0,1.046,0.208,1.884,0.621,2.516c0.411,0.632,1.021,0.948,1.819,0.948
			c0.668,0,1.193-0.176,1.582-0.528c0.39-0.351,0.58-0.815,0.58-1.394h1.135c0,0.88-0.301,1.58-0.898,2.096
			s-1.424,0.774-2.473,0.774c-1.047,0-1.891-0.401-2.533-1.202c-0.646-0.8-0.971-1.874-0.971-3.217c0-1.343,0.336-2.392,1.002-3.144
			S178.238,29.085,179.287,29.085z"/>
		<path fill="#1A578B" d="M185.148,29.739c-0.215,0-0.382-0.06-0.502-0.18c-0.12-0.121-0.181-0.28-0.181-0.481
			c0-0.2,0.061-0.361,0.181-0.48c0.12-0.121,0.287-0.18,0.502-0.18c0.213,0,0.385,0.06,0.512,0.18c0.129,0.12,0.194,0.28,0.194,0.48
			c0,0.2-0.065,0.361-0.194,0.481C185.533,29.679,185.36,29.739,185.148,29.739z M184.625,31.234h1.055v6.395h-1.055V31.234z"/>
		<path fill="#1A578B" d="M191.889,37.442c-0.766,0.356-1.465,0.432-2.098,0.227c-0.453-0.143-0.773-0.441-0.961-0.895
			c-0.097-0.222-0.146-0.489-0.146-0.801v-3.925h-1.025v-0.801h1.025v-1.776h1.042v1.776h2.001v0.801h-2.001v3.911
			c0,0.65,0.304,0.975,0.907,0.975c0.328,0,0.699-0.081,1.107-0.241L191.889,37.442z"/>
		<path fill="#1A578B" d="M194.158,29.739c-0.213,0-0.379-0.06-0.5-0.18c-0.121-0.121-0.182-0.28-0.182-0.481
			c0-0.2,0.061-0.361,0.182-0.48c0.121-0.121,0.287-0.18,0.5-0.18c0.215,0,0.385,0.06,0.516,0.18c0.129,0.12,0.191,0.28,0.191,0.48
			c0,0.2-0.062,0.361-0.191,0.481C194.541,29.679,194.371,29.739,194.158,29.739z M193.638,31.234h1.054v6.395h-1.054V31.234z"/>
		<path fill="#1A578B" d="M199.766,36.921c0.881,0,1.383-0.387,1.509-1.161h1.08c-0.097,0.641-0.378,1.136-0.846,1.488
			s-1.048,0.528-1.743,0.528c-0.854,0-1.548-0.305-2.082-0.914c-0.534-0.61-0.8-1.422-0.8-2.436c0-1.014,0.269-1.824,0.807-2.43
			c0.538-0.605,1.255-0.907,2.147-0.907c0.896,0,1.562,0.347,2.003,1.041c0.44,0.694,0.595,1.54,0.46,2.537h-4.363
			c0,0.658,0.159,1.198,0.479,1.621C198.736,36.709,199.188,36.921,199.766,36.921z M200.539,32.088
			c-0.207-0.107-0.457-0.16-0.748-0.16c-0.545,0-0.977,0.188-1.289,0.555c-0.315,0.37-0.5,0.83-0.555,1.382h3.4
			C201.353,32.975,201.08,32.382,200.539,32.088z"/>
		<path fill="#1A578B" d="M204.777,31.555c0.45-0.311,1.059-0.467,1.821-0.467c0.767,0,1.364,0.16,1.797,0.48
			c0.433,0.321,0.655,0.726,0.674,1.215h-1.028c-0.078-0.579-0.566-0.868-1.469-0.868c-0.437,0-0.771,0.098-1.008,0.294
			c-0.236,0.195-0.354,0.407-0.354,0.634c0,0.227,0.088,0.417,0.266,0.574c0.178,0.156,0.462,0.292,0.854,0.407l1.281,0.427
			c0.543,0.169,0.961,0.386,1.249,0.648c0.288,0.263,0.433,0.624,0.433,1.082s-0.232,0.871-0.707,1.241
			c-0.471,0.369-1.131,0.554-1.976,0.554s-1.505-0.189-1.976-0.567c-0.471-0.377-0.723-0.866-0.747-1.461h1.014
			c0.019,0.4,0.181,0.7,0.488,0.901c0.308,0.2,0.69,0.299,1.153,0.299s0.845-0.097,1.146-0.294c0.306-0.195,0.456-0.429,0.456-0.7
			s-0.091-0.478-0.271-0.62c-0.176-0.142-0.467-0.268-0.863-0.374l-1.242-0.413c-1.109-0.329-1.667-0.908-1.667-1.736
			C204.104,32.285,204.328,31.866,204.777,31.555z"/>
		<path fill="#1A578B" d="M218.586,33.491c0-0.579-0.12-0.992-0.36-1.242c-0.239-0.249-0.59-0.374-1.049-0.374
			c-0.457,0-0.827,0.091-1.106,0.274s-0.42,0.47-0.42,0.861h-1.162c0-0.979,0.525-1.585,1.574-1.814
			c0.32-0.072,0.667-0.107,1.041-0.107c0.792,0,1.412,0.201,1.857,0.601s0.666,1.01,0.666,1.829v4.112h-0.908l-0.105-1.069
			c-0.393,0.811-1.1,1.215-2.123,1.215c-0.687,0-1.231-0.192-1.646-0.574c-0.414-0.382-0.62-0.859-0.62-1.428
			s0.229-1.014,0.688-1.334c0.459-0.321,1.028-0.48,1.715-0.48s1.341,0.116,1.961,0.348v-0.818H218.586z M218.586,34.972
			c-0.631-0.178-1.186-0.268-1.655-0.268c-0.472,0-0.854,0.085-1.147,0.254c-0.295,0.169-0.438,0.436-0.438,0.801
			c0,0.8,0.452,1.201,1.36,1.201c0.518,0,0.959-0.186,1.326-0.554C218.402,36.038,218.586,35.559,218.586,34.972z"/>
		<path fill="#1A578B" d="M223.125,32.476c0.416-0.925,1.134-1.388,2.146-1.388c0.759,0,1.347,0.25,1.771,0.748
			c0.422,0.498,0.636,1.179,0.636,2.042v3.751h-1.042v-3.751c0-0.614-0.146-1.078-0.436-1.389c-0.289-0.312-0.699-0.468-1.231-0.468
			c-0.535,0-0.968,0.218-1.294,0.654c-0.33,0.437-0.506,1.041-0.522,1.816v3.136h-1.054v-6.381h0.906L223.125,32.476z"/>
		<path fill="#1A578B" d="M234.338,32.194v-3.657h1.041v9.091h-0.854l-0.134-1.069c-0.205,0.401-0.477,0.703-0.812,0.909
			c-0.34,0.205-0.707,0.307-1.107,0.307c-0.811,0-1.487-0.312-2.035-0.935s-0.818-1.436-0.818-2.437s0.268-1.804,0.807-2.409
			s1.22-0.908,2.043-0.908C233.285,31.087,233.91,31.457,234.338,32.194z M232.522,32.021c-0.517,0-0.95,0.218-1.302,0.654
			c-0.354,0.437-0.528,1.019-0.528,1.749s0.179,1.314,0.535,1.756c0.356,0.439,0.783,0.661,1.281,0.661
			c0.497,0,0.923-0.167,1.274-0.501c0.353-0.333,0.533-0.781,0.555-1.341v-1.041c0-0.596-0.174-1.068-0.521-1.415
			C233.47,32.194,233.037,32.021,232.522,32.021z"/>
	</g>
	<g>
		<path fill="#1A578B" d="M179.287,45.104c0.897,0,1.621,0.226,2.17,0.674c0.547,0.449,0.922,1.035,1.127,1.757l-1.133,0.229
			c-0.179-0.525-0.457-0.939-0.834-1.25c-0.381-0.308-0.82-0.459-1.328-0.459c-0.703,0-1.287,0.293-1.748,0.883
			c-0.465,0.586-0.694,1.401-0.694,2.446c0,1.048,0.208,1.888,0.621,2.519c0.411,0.634,1.021,0.945,1.819,0.945
			c0.668,0,1.193-0.175,1.582-0.524c0.39-0.354,0.58-0.815,0.58-1.396h1.135c0,0.882-0.301,1.58-0.898,2.097
			c-0.602,0.52-1.424,0.774-2.473,0.774c-1.047,0-1.891-0.399-2.533-1.202c-0.646-0.801-0.971-1.871-0.971-3.217
			c0-1.343,0.336-2.391,1.002-3.145S178.238,45.104,179.287,45.104z"/>
		<path fill="#1A578B" d="M184.56,44.557h1.054v9.092h-1.054V44.557z"/>
		<path fill="#1A578B" d="M188.886,45.757c-0.214,0-0.382-0.062-0.501-0.181c-0.121-0.12-0.182-0.279-0.182-0.48
			c0-0.199,0.061-0.361,0.182-0.479c0.119-0.12,0.287-0.183,0.501-0.183s0.384,0.062,0.512,0.183
			c0.129,0.118,0.194,0.278,0.194,0.479c0,0.2-0.065,0.36-0.194,0.48C189.27,45.695,189.1,45.757,188.886,45.757z M188.365,47.252
			h1.055v6.396h-1.055V47.252z"/>
		<path fill="#1A578B" d="M193.304,48.494c0.418-0.928,1.135-1.391,2.147-1.391c0.553,0,1.016,0.137,1.39,0.408
			c0.372,0.271,0.646,0.646,0.813,1.129c0.398-1.022,1.143-1.535,2.229-1.535c0.765,0,1.355,0.248,1.773,0.748
			c0.418,0.496,0.627,1.18,0.627,2.041v3.752h-1.041v-3.752c0-0.61-0.146-1.076-0.435-1.389s-0.705-0.467-1.248-0.467
			c-0.544,0-0.963,0.225-1.265,0.668c-0.297,0.443-0.445,1.059-0.445,1.842v3.098h-1.041v-3.75c0-0.612-0.146-1.078-0.436-1.389
			c-0.289-0.312-0.698-0.468-1.232-0.468c-0.533,0-0.965,0.217-1.294,0.651c-0.329,0.438-0.503,1.041-0.521,1.813v3.14h-1.055
			v-6.381h0.907L193.304,48.494z"/>
		<path fill="#1A578B" d="M208.721,49.508c0-0.576-0.119-0.99-0.361-1.24c-0.238-0.248-0.588-0.373-1.046-0.373
			c-0.459,0-0.828,0.092-1.108,0.272c-0.277,0.183-0.42,0.469-0.42,0.858h-1.162c0-0.979,0.525-1.582,1.576-1.812
			c0.318-0.07,0.666-0.107,1.039-0.107c0.795,0,1.41,0.201,1.857,0.604c0.445,0.398,0.668,1.012,0.668,1.828v4.109h-0.909
			l-0.106-1.065c-0.393,0.812-1.1,1.215-2.121,1.215c-0.688,0-1.233-0.188-1.648-0.571c-0.412-0.385-0.619-0.857-0.619-1.43
			s0.229-1.018,0.688-1.335c0.46-0.317,1.031-0.479,1.717-0.479c0.688,0,1.339,0.113,1.961,0.349L208.721,49.508L208.721,49.508z
			 M208.721,50.989c-0.631-0.179-1.182-0.267-1.654-0.267c-0.472,0-0.854,0.084-1.148,0.252c-0.293,0.17-0.438,0.438-0.438,0.801
			c0,0.803,0.454,1.201,1.362,1.201c0.515,0,0.958-0.186,1.325-0.556C208.537,52.057,208.721,51.577,208.721,50.989z"/>
		<path fill="#1A578B" d="M215.584,53.46c-0.77,0.354-1.467,0.433-2.101,0.228c-0.452-0.143-0.772-0.438-0.961-0.896
			c-0.099-0.224-0.146-0.487-0.146-0.801v-3.927h-1.026v-0.801h1.026v-1.772h1.039v1.772h2.002v0.801h-2.002v3.912
			c0,0.648,0.306,0.976,0.908,0.976c0.33,0,0.698-0.079,1.106-0.239L215.584,53.46z"/>
		<path fill="#1A578B" d="M219.468,52.938c0.881,0,1.384-0.39,1.509-1.162h1.082c-0.098,0.644-0.38,1.139-0.848,1.488
			c-0.467,0.354-1.049,0.526-1.742,0.526c-0.854,0-1.549-0.306-2.083-0.914c-0.533-0.608-0.8-1.423-0.8-2.437
			c0-1.017,0.27-1.823,0.807-2.433c0.539-0.604,1.255-0.907,2.148-0.907c0.895,0,1.562,0.351,2.002,1.043
			c0.438,0.692,0.596,1.539,0.459,2.534h-4.362c0,0.658,0.159,1.198,0.479,1.621C218.439,52.729,218.89,52.938,219.468,52.938z
			 M220.242,48.105c-0.205-0.105-0.453-0.162-0.748-0.162c-0.543,0-0.972,0.188-1.287,0.556c-0.312,0.369-0.5,0.83-0.556,1.382
			h3.403C221.056,48.992,220.785,48.398,220.242,48.105z"/>
	</g>
	<g>
		<path fill="#1A578B" d="M179.287,61.122c0.897,0,1.621,0.228,2.17,0.674c0.547,0.451,0.922,1.034,1.127,1.755l-1.133,0.229
			c-0.179-0.522-0.457-0.939-0.834-1.246c-0.381-0.309-0.82-0.46-1.328-0.46c-0.703,0-1.287,0.294-1.748,0.882
			c-0.465,0.587-0.694,1.402-0.694,2.447c0,1.047,0.208,1.887,0.621,2.519c0.411,0.632,1.021,0.947,1.819,0.947
			c0.668,0,1.193-0.177,1.582-0.526c0.39-0.354,0.58-0.816,0.58-1.396h1.135c0,0.885-0.301,1.58-0.898,2.1
			c-0.604,0.518-1.424,0.773-2.473,0.773c-1.047,0-1.891-0.399-2.533-1.2c-0.643-0.802-0.971-1.874-0.971-3.218
			s0.336-2.394,1.002-3.146C177.377,61.497,178.238,61.122,179.287,61.122z"/>
		<path fill="#1A578B" d="M185.613,64.459c0.428-0.891,1.135-1.335,2.123-1.335c0.756,0,1.346,0.251,1.768,0.748
			c0.426,0.497,0.638,1.18,0.638,2.043v3.75h-1.039v-3.75c0-0.614-0.146-1.078-0.437-1.39c-0.289-0.312-0.705-0.467-1.248-0.467
			c-0.545,0-0.979,0.229-1.31,0.688c-0.329,0.459-0.495,1.093-0.495,1.901v3.018h-1.054v-9.09h1.054V64.459L185.613,64.459z"/>
		<path fill="#1A578B" d="M196.574,65.525c0-0.575-0.119-0.99-0.357-1.239c-0.24-0.249-0.592-0.373-1.051-0.373
			s-0.824,0.091-1.104,0.272c-0.278,0.183-0.421,0.471-0.421,0.859h-1.161c0-0.979,0.522-1.585,1.575-1.814
			c0.316-0.07,0.667-0.106,1.04-0.106c0.793,0,1.409,0.201,1.854,0.604c0.445,0.399,0.668,1.01,0.668,1.828v4.109h-0.91
			l-0.104-1.066c-0.395,0.812-1.102,1.215-2.123,1.215c-0.688,0-1.234-0.189-1.648-0.571c-0.412-0.384-0.619-0.858-0.619-1.431
			c0-0.567,0.229-1.016,0.688-1.334s1.031-0.479,1.718-0.479c0.686,0,1.338,0.112,1.961,0.351v-0.82h-0.004v-0.004H196.574z
			 M196.574,67.008c-0.632-0.177-1.183-0.266-1.654-0.266c-0.473,0-0.854,0.084-1.146,0.255c-0.294,0.168-0.438,0.438-0.438,0.799
			c0,0.804,0.455,1.202,1.363,1.202c0.514,0,0.955-0.186,1.324-0.557C196.391,68.075,196.574,67.598,196.574,67.008z"/>
		<path fill="#1A578B" d="M201.113,64.516c0.418-0.929,1.135-1.392,2.148-1.392c0.756,0,1.346,0.251,1.77,0.748
			c0.422,0.497,0.633,1.18,0.633,2.043v3.75h-1.041v-3.75c0-0.614-0.145-1.078-0.434-1.39s-0.701-0.467-1.234-0.467
			s-0.965,0.217-1.293,0.651c-0.33,0.437-0.504,1.041-0.521,1.813v3.139h-1.056v-6.38h0.908L201.113,64.516z"/>
		<path fill="#1A578B" d="M208.414,69.465c-0.535-0.259-0.801-0.652-0.801-1.188c0-0.273,0.104-0.519,0.312-0.729
			c0.209-0.209,0.468-0.35,0.778-0.421c-0.479-0.426-0.722-0.985-0.722-1.683c0-0.692,0.248-1.254,0.743-1.682
			c0.492-0.429,1.078-0.644,1.755-0.644s1.249,0.161,1.722,0.479c0.062-0.474,0.252-0.85,0.567-1.134
			c0.313-0.284,0.731-0.428,1.247-0.428l-0.094,1.04c-0.783,0-1.192,0.328-1.229,0.986c0.312,0.385,0.468,0.843,0.468,1.375
			c0,0.688-0.246,1.248-0.74,1.688s-1.111,0.659-1.851,0.659c-0.509,0-0.956-0.104-1.35-0.309c-0.181,0.035-0.341,0.119-0.479,0.246
			c-0.146,0.129-0.215,0.309-0.215,0.527c0,0.473,0.391,0.708,1.176,0.708h2.481c0.597,0,1.067,0.126,1.416,0.38
			s0.521,0.605,0.521,1.061c0,0.68-0.34,1.271-1.021,1.775c-0.683,0.508-1.542,0.762-2.584,0.762c-1.039,0-1.854-0.192-2.454-0.582
			c-0.598-0.387-0.896-0.873-0.896-1.461c0-0.383,0.113-0.693,0.342-0.936C207.74,69.729,208.039,69.562,208.414,69.465z
			 M208.213,70.866c0,0.338,0.186,0.63,0.555,0.875c0.369,0.243,0.93,0.366,1.682,0.366s1.381-0.162,1.883-0.487
			c0.504-0.324,0.754-0.705,0.754-1.142c0-0.205-0.07-0.381-0.221-0.526c-0.146-0.146-0.369-0.22-0.673-0.22h-2.577
			c-0.453,0.019-0.8,0.125-1.041,0.324C208.334,70.26,208.213,70.527,208.213,70.866z M212.139,65.439
			c0-0.459-0.139-0.834-0.413-1.123c-0.276-0.287-0.655-0.434-1.142-0.434c-0.485,0-0.865,0.146-1.144,0.434
			c-0.272,0.289-0.409,0.666-0.409,1.131c0,0.461,0.139,0.844,0.42,1.14c0.276,0.298,0.656,0.447,1.141,0.447
			c0.48,0,0.857-0.151,1.134-0.453C212,66.277,212.139,65.896,212.139,65.439z"/>
		<path fill="#1A578B" d="M217.894,68.958c0.879,0,1.382-0.388,1.508-1.162h1.081c-0.097,0.644-0.378,1.138-0.846,1.489
			c-0.467,0.354-1.049,0.525-1.743,0.525c-0.854,0-1.548-0.307-2.083-0.912c-0.533-0.609-0.799-1.424-0.799-2.438
			s0.268-1.822,0.807-2.43c0.538-0.604,1.256-0.908,2.148-0.908c0.895,0,1.562,0.35,2.002,1.042s0.595,1.539,0.46,2.536h-4.363
			c0,0.656,0.159,1.197,0.479,1.619C216.865,68.746,217.315,68.958,217.894,68.958z M218.666,64.125
			c-0.205-0.105-0.455-0.16-0.746-0.16c-0.545,0-0.977,0.188-1.287,0.555c-0.316,0.369-0.502,0.83-0.557,1.381h3.401
			C219.48,65.014,219.209,64.419,218.666,64.125z"/>
	</g>
</g>
<g>
	<path fill="#007AC8" d="M115.721,51.163c-2.254,1.955-5.183,3.151-8.401,3.151c-7.106,0-12.868-5.762-12.868-12.866
		c0-7.107,5.762-12.868,12.868-12.868c2.648,0,5.1,0.809,7.144,2.182l1.764-2.253c-2.533-1.755-5.599-2.788-8.908-2.788
		c-8.671,0-15.727,7.054-15.727,15.727c0,8.671,7.055,15.726,15.727,15.726c3.908,0,7.469-1.451,10.221-3.822L115.721,51.163z"/>
	<path fill="#007AC8" d="M123.546,60.566c-4.378,3.725-10.042,5.979-16.227,5.979c-13.839,0-25.098-11.26-25.098-25.098
		c0-13.841,11.259-25.099,25.098-25.099c5.485,0,10.558,1.776,14.691,4.773l1.771-2.264c-4.618-3.371-10.306-5.369-16.462-5.369
		c-15.44,0-27.958,12.517-27.958,27.958c0,15.439,12.518,27.955,27.958,27.955c6.889,0,13.195-2.489,18.069-6.623L123.546,60.566z"
		/>
	<path fill="#007AC8" d="M119.667,55.907c-3.327,2.848-7.636,4.575-12.349,4.575c-10.495,0-19.035-8.541-19.035-19.034
		c0-10.497,8.54-19.036,19.036-19.036c4.078,0,7.848,1.299,10.945,3.495l1.771-2.262c-3.587-2.571-7.975-4.093-12.715-4.093
		c-12.073,0-21.895,9.821-21.895,21.896c0,12.069,9.822,21.895,21.895,21.895c5.407,0,10.354-1.979,14.176-5.237L119.667,55.907z"/>
</g>
<g>
	<path fill="#FFC200" d="M128.171,34.553c1.704,2.409,4.524,4.113,7.638,4.113c3.878,0,7.697-3.055,7.697-7.461
		c0-4.289-3.526-7.521-8.108-7.521c-1.646,0-3.408,0.412-4.936,1.175v-4.701l7.698-9.106h-13.75V4h24.971v4.701l-7.461,9.166
		c5.641,2.174,9.518,7.109,9.518,13.337c0,8.695-6.816,14.513-15.335,14.513c-5.112,0-9.988-2.292-13.631-6.404L128.171,34.553z"/>
</g>
</svg>
