<?xml version="1.0" encoding="utf-8"?>
<!-- Generator: Adobe Illustrator 15.0.0, SVG Export Plug-In . SVG Version: 6.00 Build 0)  -->
<!DOCTYPE svg PUBLIC "-//W3C//DTD SVG 1.1//EN" "http://www.w3.org/Graphics/SVG/1.1/DTD/svg11.dtd">
<svg version="1.1" id="Layer_1" xmlns="http://www.w3.org/2000/svg" xmlns:xlink="http://www.w3.org/1999/xlink" x="0px" y="0px"
	 width="134.667px" height="73.5px" viewBox="0 0 134.667 73.5" enable-background="new 0 0 134.667 73.5" xml:space="preserve">
<polygon fill="#3C2A23" points="41.285,13.878 53.712,13.878 33.095,63.794 20.674,63.794 "/>
<rect x="41.556" y="13.878" fill="#75554A" width="12.157" height="54.845"/>
<rect y="13.878" fill="#3C2A23" width="12.158" height="54.845"/>
<g>
	<polygon fill="#75554A" points="12.7,13.878 0,13.878 20.674,63.794 33.095,63.794 	"/>
</g>
<g>
	<path fill="#75554A" d="M96.673,51.163c-2.254,1.955-5.182,3.151-8.4,3.151c-7.105,0-12.867-5.764-12.867-12.866
		c0-7.107,5.762-12.868,12.867-12.868c2.648,0,5.1,0.809,7.145,2.182l1.764-2.253c-2.533-1.755-5.6-2.788-8.908-2.788
		c-8.67,0-15.727,7.054-15.727,15.727c0,8.671,7.055,15.726,15.727,15.726c3.908,0,7.469-1.451,10.221-3.822L96.673,51.163z"/>
	<path fill="#75554A" d="M104.5,60.566c-4.379,3.725-10.043,5.979-16.227,5.979c-13.84,0-25.099-11.26-25.099-25.098
		c0-13.841,11.259-25.099,25.099-25.099c5.484,0,10.557,1.776,14.689,4.773l1.771-2.264c-4.617-3.371-10.307-5.369-16.461-5.369
		c-15.441,0-27.959,12.517-27.959,27.958c0,15.439,12.518,27.955,27.959,27.955c6.889,0,13.193-2.487,18.068-6.623L104.5,60.566z"/>
	<path fill="#75554A" d="M100.621,55.907c-3.328,2.848-7.637,4.575-12.35,4.575c-10.494,0-19.035-8.541-19.035-19.034
		c0-10.497,8.541-19.036,19.037-19.036c4.078,0,7.848,1.299,10.943,3.495l1.771-2.262c-3.586-2.571-7.975-4.093-12.715-4.093
		c-12.072,0-21.895,9.821-21.895,21.896c0,12.069,9.823,21.895,21.895,21.895c5.408,0,10.354-1.979,14.176-5.237L100.621,55.907z"/>
</g>
<g>
	<path fill="#988077" d="M109.125,34.553c1.703,2.409,4.523,4.113,7.637,4.113c3.881,0,7.697-3.055,7.697-7.461
		c0-4.289-3.523-7.521-8.105-7.521c-1.646,0-3.408,0.412-4.938,1.175v-4.701l7.697-9.106h-13.75V4h24.971v4.701l-7.461,9.166
		c5.643,2.174,9.52,7.109,9.52,13.337c0,8.694-6.816,14.513-15.334,14.513c-5.113,0-9.988-2.292-13.633-6.404L109.125,34.553z"/>
</g>
</svg>
