<?xml version="1.0" encoding="utf-8"?>
<!-- Generator: Adobe Illustrator 15.0.0, SVG Export Plug-In . SVG Version: 6.00 Build 0)  -->
<!DOCTYPE svg PUBLIC "-//W3C//DTD SVG 1.1//EN" "http://www.w3.org/Graphics/SVG/1.1/DTD/svg11.dtd">
<svg version="1.1" id="Layer_1" xmlns="http://www.w3.org/2000/svg" xmlns:xlink="http://www.w3.org/1999/xlink" x="0px" y="0px"
	 width="134.667px" height="73.5px" viewBox="11.977 0 134.667 73.5" enable-background="new 11.977 0 134.667 73.5"
	 xml:space="preserve">
<path fill="none" d="M108.651,51.163c-2.254,1.955-5.183,3.151-8.401,3.151c-7.106,0-12.868-5.763-12.868-12.866
	c0-7.107,5.762-12.868,12.868-12.868c2.648,0,5.1,0.809,7.144,2.182l9.318-11.904c-4.618-3.371-10.306-5.369-16.462-5.369
	c-15.44,0-27.958,12.517-27.958,27.958c0,15.44,12.518,27.956,27.958,27.956c6.889,0,13.195-2.488,18.069-6.623L108.651,51.163z"/>
<polygon fill="#1A578B" points="53.262,13.878 65.689,13.878 45.072,63.794 32.651,63.794 "/>
<rect x="53.533" y="13.878" fill="#007AC8" width="12.157" height="54.845"/>
<rect x="11.977" y="13.878" fill="#1A578B" width="12.158" height="54.845"/>
<g>
	<polygon fill="#007AC8" points="24.677,13.878 11.977,13.878 32.651,63.794 45.072,63.794 	"/>
</g>
<g>
	<path fill="#007AC8" d="M108.651,51.163c-2.254,1.955-5.183,3.151-8.401,3.151c-7.106,0-12.868-5.763-12.868-12.866
		c0-7.107,5.762-12.868,12.868-12.868c2.648,0,5.1,0.809,7.144,2.182l1.764-2.253c-2.533-1.755-5.599-2.788-8.908-2.788
		c-8.671,0-15.727,7.054-15.727,15.727c0,8.671,7.055,15.726,15.727,15.726c3.908,0,7.469-1.451,10.221-3.822L108.651,51.163z"/>
	<path fill="#007AC8" d="M116.476,60.566c-4.378,3.725-10.042,5.979-16.227,5.979c-13.839,0-25.098-11.26-25.098-25.098
		c0-13.841,11.259-25.099,25.098-25.099c5.485,0,10.558,1.776,14.691,4.773l1.771-2.264c-4.618-3.371-10.306-5.369-16.462-5.369
		c-15.44,0-27.958,12.517-27.958,27.958c0,15.439,12.518,27.955,27.958,27.955c6.889,0,13.195-2.488,18.07-6.623L116.476,60.566z"/>
	<path fill="#007AC8" d="M112.597,55.907c-3.327,2.848-7.636,4.575-12.349,4.575c-10.495,0-19.035-8.541-19.035-19.034
		c0-10.497,8.54-19.036,19.036-19.036c4.078,0,7.848,1.299,10.945,3.495l1.771-2.262c-3.587-2.571-7.975-4.093-12.715-4.093
		c-12.073,0-21.895,9.821-21.895,21.896c0,12.069,9.822,21.895,21.895,21.895c5.407,0,10.354-1.979,14.176-5.237L112.597,55.907z"/>
</g>
<g>
	<path fill="#FFC200" d="M121.101,34.553c1.704,2.409,4.524,4.113,7.638,4.113c3.879,0,7.697-3.055,7.697-7.461
		c0-4.289-3.525-7.521-8.107-7.521c-1.646,0-3.408,0.412-4.937,1.175v-4.701l7.698-9.106h-13.75V4h24.971v4.701l-7.461,9.166
		c5.641,2.174,9.518,7.109,9.518,13.337c0,8.695-6.815,14.513-15.334,14.513c-5.112,0-9.988-2.292-13.631-6.404L121.101,34.553z"/>
</g>
</svg>
