<?xml version="1.0" encoding="utf-8"?>
<!-- Generator: Adobe Illustrator 15.0.0, SVG Export Plug-In . SVG Version: 6.00 Build 0)  -->
<!DOCTYPE svg PUBLIC "-//W3C//DTD SVG 1.1//EN" "http://www.w3.org/Graphics/SVG/1.1/DTD/svg11.dtd">
<svg version="1.1" xmlns="http://www.w3.org/2000/svg" xmlns:xlink="http://www.w3.org/1999/xlink" x="0px" y="0px" width="320px"
	 height="120px" viewBox="0 -12.5 320 120" enable-background="new 0 -12.5 320 120" xml:space="preserve">
<g id="Calque_2" display="none">
	<polygon display="inline" fill="#1A578B" points="61.648,20.045 74.076,20.045 53.458,69.961 41.037,69.961 	"/>
	<rect x="61.919" y="20.045" display="inline" fill="#007AC8" width="12.157" height="54.844"/>
	<rect x="20.364" y="20.045" display="inline" fill="#1A578B" width="12.158" height="54.844"/>
	<g display="inline">
		<polygon fill="#007AC8" points="33.063,20.045 20.364,20.045 41.037,69.961 53.458,69.961 		"/>
	</g>
</g>
<g id="Layer_1">
	<rect x="219.087" y="16.57" fill="none" width="75.412" height="72.861"/>
	<text transform="matrix(1 0 0 1 219.0879 27.4668)"><tspan x="0" y="0" fill="#65382D" font-family="'Karmilla-Regular'" font-size="16">Ciudades </tspan><tspan x="0" y="20" fill="#65382D" font-family="'Karmilla-Regular'" font-size="16">Andinas y </tspan><tspan x="0" y="40" fill="#65382D" font-family="'Karmilla-Regular'" font-size="16">Cambio </tspan><tspan x="0" y="60" fill="#65382D" font-family="'Karmilla-Regular'" font-size="16">Climático</tspan></text>
</g>
<g id="Calque_3" display="none">
	<g display="inline" opacity="0.7">
		<path d="M39.318,20.045h16.508l18,54.845H61.262L57.46,63.059H37.092L33.206,74.89H20.642L39.318,20.045z M39.628,55.538h15.381
			L47.403,31.96L39.628,55.538z"/>
	</g>
</g>
<g id="Calque_4">
	<g>
		<path fill="#482A25" d="M132.907,65.717c-3.278,2.845-7.539,4.588-12.221,4.588c-10.336,0-18.717-8.382-18.717-18.718
			c0-10.338,8.381-18.718,18.717-18.718c3.852,0,7.418,1.177,10.392,3.174l2.566-3.277c-3.684-2.553-8.145-4.054-12.958-4.054
			c-12.612,0-22.875,10.259-22.875,22.875c0,12.612,10.262,22.875,22.875,22.875c5.685,0,10.865-2.112,14.867-5.562L132.907,65.717z
			"/>
		<path fill="#482A25" d="M144.291,79.397c-6.368,5.417-14.607,8.695-23.604,8.695c-20.13,0-36.507-16.377-36.507-36.506
			c0-20.133,16.377-36.509,36.507-36.509c7.979,0,15.358,2.583,21.37,6.942l2.577-3.293c-6.719-4.903-14.992-7.809-23.947-7.809
			c-22.458,0-40.667,18.207-40.667,40.668c0,22.459,18.208,40.662,40.667,40.662c10.02,0,19.194-3.621,26.284-9.632L144.291,79.397z
			"/>
		<path fill="#482A25" d="M138.647,72.618c-4.839,4.143-11.107,6.656-17.963,6.656c-15.265,0-27.688-12.424-27.688-27.688
			c0-15.269,12.424-27.69,27.69-27.69c5.932,0,11.416,1.89,15.921,5.085l2.575-3.291c-5.216-3.739-11.599-5.955-18.494-5.955
			c-17.562,0-31.847,14.287-31.847,31.851c0,17.557,14.286,31.845,31.847,31.845c7.865,0,15.061-2.876,20.62-7.616L138.647,72.618z"
			/>
	</g>
	<g>
		<path fill="#32E486" d="M155.421,41.558c2.479,3.502,6.582,5.982,11.11,5.982c5.642,0,11.195-4.444,11.195-10.853
			c0-6.239-5.129-10.94-11.793-10.94c-2.394,0-4.957,0.599-7.18,1.708v-6.837L169.95,7.373h-20.001V-2.885h36.323v6.837
			l-10.854,13.333c8.204,3.162,13.844,10.341,13.844,19.399c0,12.65-9.914,21.11-22.304,21.11c-7.437,0-14.529-3.333-19.828-9.313
			L155.421,41.558z"/>
	</g>
	<g>
		<defs>
			<polygon id="SVGID_1_" points="81.444,91.258 49.999,11.484 32.313,11.484 50.973,61.118 19.208,61.118 19.208,77.36 
				57.08,77.36 62.304,91.258 			"/>
		</defs>
		<use xlink:href="#SVGID_1_"  overflow="visible" fill="#65382D"/>
		<clipPath id="SVGID_2_">
			<use xlink:href="#SVGID_1_"  overflow="visible"/>
		</clipPath>
		<polygon clip-path="url(#SVGID_2_)" fill="#482A25" points="32.292,11.484 49.978,11.484 38.348,91.258 19.208,91.258 		"/>
	</g>
	<rect x="19.208" y="-67.882" fill="#65382D" width="44.028" height="16.242"/>
	<polygon fill="#65382D" points="32.313,-117.516 49.999,-117.516 81.444,-37.742 62.304,-37.742 	"/>
	<polygon fill="#8F4C3A" points="32.445,-117.516 50.13,-117.516 20.14,-37.742 1,-37.742 	"/>
	<polygon fill="#8F4C3A" points="32.292,11.484 49.978,11.484 19.987,91.258 0.847,91.258 	"/>
	<polygon fill="#8F4C3A" points="32.292,11.484 49.978,11.484 19.987,91.258 0.847,91.258 	"/>
</g>
</svg>
