<?xml version="1.0" encoding="utf-8"?>
<!-- Generator: Adobe Illustrator 15.0.0, SVG Export Plug-In . SVG Version: 6.00 Build 0)  -->
<!DOCTYPE svg PUBLIC "-//W3C//DTD SVG 1.1//EN" "http://www.w3.org/Graphics/SVG/1.1/DTD/svg11.dtd">
<svg version="1.1" id="Layer_1" xmlns="http://www.w3.org/2000/svg" xmlns:xlink="http://www.w3.org/1999/xlink" x="0px" y="0px"
	 width="134.667px" height="73.5px" viewBox="11.977 0 134.667 73.5" enable-background="new 11.977 0 134.667 73.5"
	 xml:space="preserve">
<g>
	<g>
		<path fill="#007AC8" d="M107.903,51.158c-2.254,1.955-5.183,3.155-8.402,3.155c-7.104,0-12.867-5.763-12.867-12.868
			c0-7.106,5.762-12.867,12.867-12.867c2.648,0,5.1,0.809,7.144,2.181l1.765-2.252c-2.533-1.755-5.6-2.787-8.909-2.787
			c-8.669,0-15.725,7.052-15.725,15.725c0,8.671,7.055,15.725,15.725,15.725c3.909,0,7.469-1.452,10.22-3.822L107.903,51.158z"/>
		<path fill="#007AC8" d="M115.728,60.562c-4.377,3.726-10.042,5.977-16.226,5.977c-13.838,0-25.097-11.258-25.097-25.094
			c0-13.841,11.258-25.098,25.097-25.098c5.485,0,10.558,1.775,14.69,4.772l1.771-2.264c-4.619-3.371-10.306-5.369-16.461-5.369
			c-15.438,0-27.956,12.516-27.956,27.957s12.517,27.953,27.956,27.953c6.888,0,13.194-2.489,18.067-6.622L115.728,60.562z"/>
		<path fill="#007AC8" d="M111.848,55.904c-3.326,2.848-7.635,4.572-12.348,4.572c-10.494,0-19.034-8.539-19.034-19.031
			c0-10.498,8.541-19.036,19.035-19.036c4.079,0,7.848,1.3,10.945,3.496l1.77-2.262c-3.586-2.57-7.974-4.093-12.714-4.093
			c-12.072,0-21.893,9.821-21.893,21.896c0,12.069,9.821,21.893,21.893,21.893c5.407,0,10.354-1.979,14.175-5.237L111.848,55.904z"
			/>
	</g>
	<g>
		<path fill="#007AC8" d="M123.38,34.552c1.703,2.407,4.525,4.111,7.637,4.111c3.879,0,7.697-3.055,7.697-7.46
			c0-4.289-3.527-7.521-8.107-7.521c-1.648,0-3.408,0.412-4.938,1.174v-4.699l7.699-9.105h-13.75V4h24.969v4.7l-7.463,9.166
			c5.643,2.174,9.52,7.108,9.52,13.336c0,8.695-6.816,14.51-15.334,14.51c-5.113,0-9.988-2.29-13.63-6.402L123.38,34.552z"/>
	</g>
	<polygon fill="#007AC8" points="72.525,68.717 50.909,13.877 38.75,13.877 51.579,47.998 29.742,47.998 29.742,59.162 
		55.777,59.162 59.368,68.717 	"/>
	<g>
		<polygon fill="#1A578B" points="50.894,13.877 38.75,13.877 47.5,37.152 		"/>
	</g>
	<polygon fill="#1A578B" points="31.309,59.162 44.292,59.162 45.92,47.998 33.14,47.998 	"/>
	<polygon fill="#007AC8" points="38.736,13.877 50.894,13.877 30.277,68.717 17.12,68.717 	"/>
</g>
</svg>
